<svg width="32" height="32" viewBox="0 0 32 32" fill="none" xmlns="http://www.w3.org/2000/svg">
<path d="M4 8.77907C4.13558 11.4059 4.44321 14.1419 4.44321 16.765C4.44321 17.349 4.59094 17.8806 4.59094 18.4639C4.59094 19.3783 4.73868 20.2063 4.73868 21.115C4.73868 22.2474 4.36595 25.3254 5.9698 25.3254C7.52134 25.3254 9.06131 25.7686 10.6399 25.7686C12.9435 25.7686 15.215 26.0641 17.5096 26.0641C19.8715 26.0641 22.2237 25.9163 24.6008 25.9163C25.528 25.9163 27.6376 25.8489 27.6376 24.5867C27.6376 19.4186 27.7853 14.2259 27.7853 9.07454C27.7853 9.00835 27.7992 8.14946 27.7525 8.1553C27.4184 8.19707 27.2347 8.74402 26.9728 8.9186C26.5979 9.1685 26.2115 9.41108 25.8238 9.64086C24.9931 10.1331 24.3298 10.8422 23.5174 11.3644C22.5397 11.993 21.6586 12.845 20.7597 13.5805C19.7035 14.4447 18.4127 15.0507 17.4111 15.9688C16.8303 16.5012 15.8745 16.798 15.3756 17.4216C14.8716 18.0516 14.5666 17.8623 13.9639 17.6432C13.1393 17.3433 12.4055 16.5564 11.7397 16.0181C10.8923 15.333 10.1717 14.6553 9.40054 13.8841C8.61327 13.0969 7.73219 12.2671 6.88083 11.586C6.39839 11.2001 6.03621 10.5855 5.59226 10.1415C5.16651 9.71577 4.78935 8.97284 4.29547 8.66417C3.94729 8.44656 4.13253 8.33587 4.47604 8.33587C5.23187 8.33587 5.94907 8.18813 6.70848 8.18813C8.25696 8.18813 9.80544 8.18813 11.3539 8.18813C15.0473 8.18813 18.7407 8.18813 22.4341 8.18813C23.3807 8.18813 24.3273 8.18813 25.2739 8.18813C25.78 8.18813 26.2632 8.4836 26.7512 8.4836" stroke="#071FC0" stroke-width="1.8" stroke-linecap="round"/>
<path d="M5.03418 24.8821C6.49617 21.4098 8.93907 18.5207 12.1255 16.6089" stroke="#071FC0" stroke-width="1.8" stroke-linecap="round"/>
<path d="M17.8867 16.0181C19.3031 16.9267 21.2727 17.988 22.327 19.3585C22.8806 20.0782 23.8257 20.5775 24.2722 21.3365C24.6702 22.0132 25.4797 22.772 26.086 23.2571C26.4092 23.5156 26.8545 24.3508 27.0463 24.7344" stroke="#071FC0" stroke-width="1.8" stroke-linecap="round"/>
</svg>
