<svg width="32" height="32" viewBox="0 0 32 32" fill="none" xmlns="http://www.w3.org/2000/svg">
<path d="M18.04 28.2106C18.9064 28.3069 19.519 28.4402 20.1886 27.8078C20.6753 27.3482 21.2196 27.0099 21.7329 26.5992C22.5943 25.9101 23.2127 24.8979 23.6503 23.9134C24.1053 22.8896 24.8843 21.6 24.553 20.4071C24.3267 19.5925 24.2257 19.202 23.8144 18.4823C23.5073 17.9448 22.617 17.4887 22.0687 17.2289C21.043 16.7431 19.5222 16.5277 18.3758 16.5277C17.0443 16.5277 16.205 16.3336 14.9514 16.9604C13.252 17.8101 14.754 20.1728 15.5737 20.4071C16.7369 20.7394 19.4441 19.7592 19.796 21.1666" stroke="#071FC0" stroke-width="1.75926" stroke-linecap="round"/>
<path d="M24.7219 20.8148C24.7219 19.3511 23.2817 13.9418 23.3046 12.9737C23.3199 12.3228 23.3046 11.6698 23.3046 11.0186C23.3046 9.33247 23.3046 7.64631 23.3046 5.96015C23.3046 5.01587 23.2004 3.35883 21.852 3.22919C20.8624 3.13404 19.9126 3.28621 19.6733 4.09145C19.1319 5.91312 19.0923 8.37911 19.0923 10.3514C19.0923 11.2174 19.2375 12.1654 19.2375 13.0746C19.2375 13.966 19.6733 14.8901 19.6733 15.7978" stroke="#071FC0" stroke-width="1.75926" stroke-linecap="round"/>
<path d="M18.7406 12.3705C18.3332 11.9332 17.8426 11.6668 16.9813 11.6667C16.2577 11.6667 15.7741 11.8127 15.222 12.3704C14.2212 13.3816 15.6408 15.4831 15.6408 16.5927" stroke="#071FC0" stroke-width="1.75926" stroke-linecap="round"/>
<path d="M14.6766 13.7723C14.1172 12.9763 13.2804 12.6044 12.3601 12.8646C10.748 13.5689 10.5389 14.8252 10.6474 15.8892C10.6762 16.1714 12.0709 17.9677 12.7585 18.7041C11.8927 17.7769 11.3511 17.2966 11.3511 17.2966C11.3511 17.2966 10.4498 16.4388 10.2867 16.2307C9.7491 15.5443 8.89369 15.3007 7.96651 16.1666C6.57574 17.4654 7.17878 19.7455 7.48077 21.5189C7.6731 22.6483 8.78161 24.5578 9.59188 25.3892C10.4154 26.2343 11.1161 27.207 12.3601 27.5004C14.5178 28.5559 16.6289 28.2041 18.0363 28.2041" stroke="#071FC0" stroke-width="1.75926" stroke-linecap="round" stroke-linejoin="round"/>
<path d="M7.48096 19.0553C7.83281 19.759 9.02831 20.2033 9.23229 20.3185C9.57721 20.5132 9.9651 20.7091 10.346 20.8158C10.8766 20.9643 11.3993 21.0138 11.9427 20.9103C12.3355 20.8355 13.1106 20.231 13.1106 19.759C13.1106 19.333 12.6402 18.7015 12.4069 18.3516" stroke="#071FC0" stroke-width="1.53407" stroke-linecap="round"/>
</svg>
