<svg width="24" height="25" viewBox="0 0 24 25" fill="none" xmlns="http://www.w3.org/2000/svg">
<path d="M3.6814 8.39103C3.6814 9.82713 3.5292 10.0929 3.5292 13.1917C3.5292 13.1917 3.46349 17.2052 3.52927 17.6328C3.67563 18.5841 3.59842 19.5415 3.77172 20.4947C3.83283 20.8308 5.10128 21.0289 5.33103 21.0937C6.15428 21.3259 7.02372 21.4835 7.87918 21.4835C8.38151 21.4835 8.88385 21.4835 9.38619 21.4835C10.2895 21.4835 11.1808 21.3271 12.077 21.3124C13.9696 21.2814 15.865 21.3124 17.758 21.3124C18.113 21.3124 18.745 21.2346 19.0178 20.9891C19.31 20.7261 19.5264 20.4817 19.6643 20.0954C19.9219 19.3741 20.2266 18.4835 20.2776 17.7184C20.3892 16.0442 20.4295 14.3496 20.2776 12.6791C20.1674 11.4669 20.1112 10.256 20.1112 9.02807C20.1112 8.14594 20.0487 7.14715 19.8592 6.29452C19.742 5.76703 19.2193 4.98784 18.6945 4.79701C17.3238 4.29858 15.8468 4.07777 14.3969 3.85572C11.7065 3.44368 8.97354 3 6.24855 3" stroke="#071FC0" stroke-width="1.8" stroke-linecap="round"/>
<path d="M3.82275 8.35574C4.496 8.35574 5.16675 8.44131 5.83845 8.44131C6.33131 8.44131 6.78994 8.323 7.28842 8.39852C7.9928 8.50525 8.94929 8.5511 9.64165 8.42229C10.7075 8.224 11.9093 8.35574 12.9885 8.35574C14.0748 8.35574 15.1312 8.41004 16.2212 8.36049C16.9002 8.32963 17.6232 8.35476 18.2844 8.20361C18.6298 8.12466 18.8192 8.23179 19.0118 7.88509C19.2484 7.45915 19.8449 6.77474 19.4674 5.64233" stroke="#071FC0" stroke-width="1.8" stroke-linecap="round"/>
<path d="M6.13329 3.22144C6.13329 4.52116 6.13322 4.90027 6.13322 6.19325C6.13322 6.61276 6.02252 7.93399 6.25629 8.28464" stroke="#071FC0" stroke-width="1.8" stroke-linecap="round"/>
<path d="M6.8321 14.2445C6.55871 14.2357 6.43995 14.5118 6.55134 14.7263C6.63432 14.8862 6.82028 14.853 6.96869 14.8762C7.17903 14.9091 7.3905 14.8926 7.51505 14.696C7.57979 14.5938 7.57316 14.3553 7.49797 14.2635C7.38631 14.127 7.17059 13.9751 6.98766 13.9751C6.81894 13.9751 6.71126 14.2426 6.66137 14.3659C6.57847 14.5707 6.56388 14.7716 6.69551 14.9597C7.15914 15.622 8.25882 15.051 7.82996 14.3204C7.73844 14.1644 7.56184 14.0522 7.39364 13.9903C7.26468 13.9428 7.20357 14.0235 7.10528 14.0813C7.05064 14.1135 7.02815 14.312 7.01991 14.3697C6.99904 14.5158 6.99084 14.6524 7.03699 14.7908" stroke="#071FC0" stroke-width="1.8" stroke-linecap="round"/>
<path d="M8.30078 8.02971C8.36461 7.41273 8.43737 6.83756 8.43737 6.21801C8.43737 5.99065 8.48306 5.76119 8.54171 5.55593C8.58411 5.40754 9.84252 5.61786 9.92847 5.63181C10.4478 5.71612 10.9821 5.75923 11.5068 5.80255C11.7699 5.82428 12.054 5.82428 12.3112 5.87843C12.7554 5.97195 13.2463 5.92137 13.6809 6.06624C13.8439 6.12057 14.0268 6.05498 14.1931 6.08522C14.5826 6.15603 15.0117 6.25405 15.4034 6.25405" stroke="#071FC0" stroke-width="1.8" stroke-linecap="round"/>
</svg>
