<svg width="235" height="60" viewBox="0 0 235 60" fill="none" xmlns="http://www.w3.org/2000/svg">
<path d="M27.4984 54.5558C29.2425 54.7496 30.4758 55.0179 31.8238 53.7448C32.8035 52.8195 33.8992 52.1385 34.9327 51.3117C36.6667 49.9245 37.9118 47.8867 38.7926 45.9049C39.7087 43.8438 41.277 41.2475 40.6099 38.846C40.1544 37.2061 39.951 36.4201 39.123 34.9711C38.5047 33.8891 36.7124 32.9708 35.6086 32.4479C33.5437 31.4698 30.4823 31.0362 28.1742 31.0362C25.4938 31.0362 23.8042 30.6454 21.2805 31.9073C17.8593 33.6179 20.883 38.3745 22.5333 38.846C24.8749 39.515 30.325 37.5417 31.0333 40.3751" stroke="#071FC0" stroke-width="3.54167" stroke-linecap="round"/>
<path d="M40.95 39.6666C40.95 36.7201 38.0506 25.8304 38.0967 23.8815C38.1276 22.571 38.0967 21.2565 38.0967 19.9455C38.0967 16.551 38.0967 13.1565 38.0967 9.76198C38.0967 7.86101 37.8871 4.52512 35.1725 4.26413C33.1802 4.07258 31.2681 4.37892 30.7863 6C29.6965 9.6673 29.6167 14.6317 29.6167 18.6023C29.6167 20.3456 29.9091 22.2542 29.9091 24.0845C29.9091 25.8789 30.7863 27.7394 30.7863 29.5667" stroke="#071FC0" stroke-width="3.54167" stroke-linecap="round"/>
<path d="M28.9083 22.6667C28.0884 21.7865 27.1007 21.25 25.3667 21.25C23.91 21.25 22.9365 21.5438 21.825 22.6666C19.8101 24.7023 22.668 28.9328 22.668 31.1666" stroke="#071FC0" stroke-width="3.54167" stroke-linecap="round"/>
<path d="M20.728 25.4883C19.6018 23.8858 17.9172 23.1371 16.0646 23.6609C12.8192 25.0789 12.398 27.6078 12.6166 29.75C12.6745 30.318 15.4823 33.9343 16.8666 35.4166C15.1235 33.5501 14.0333 32.5833 14.0333 32.5833C14.0333 32.5833 12.2187 30.8564 11.8904 30.4373C10.8081 29.0556 9.08603 28.5651 7.21948 30.3083C4.41963 32.923 5.63366 37.5132 6.2416 41.0833C6.62879 43.3571 8.86039 47.2011 10.4916 48.875C12.1494 50.5762 13.5602 52.5344 16.0646 53.125C20.4082 55.25 24.6583 54.5416 27.4916 54.5416" stroke="#071FC0" stroke-width="3.54167" stroke-linecap="round" stroke-linejoin="round"/>
<path d="M6.2417 36.125C6.95003 37.5417 9.35676 38.4363 9.7674 38.6681C10.4618 39.0601 11.2427 39.4545 12.0095 39.6692C13.0778 39.9683 14.13 40.0679 15.2238 39.8595C16.0146 39.7089 17.575 38.4919 17.575 37.5417C17.575 36.6841 16.628 35.4128 16.1584 34.7084" stroke="#071FC0" stroke-width="3.08833" stroke-linecap="round"/>
<path d="M69.873 14.5C70.4646 16.3441 70.4646 18.0631 70.4646 19.2527C70.4646 21.1509 70.4646 23.0492 70.4646 24.9474C70.4646 28.9575 70.9985 33.0165 70.9985 37.0191C70.9985 39.5249 71.7993 46.9992 71.7993 44.4935" stroke="#071FC0" stroke-width="4" stroke-linecap="round"/>
<path d="M80.6084 23.6721C81.7456 30.5622 82.7439 37.7821 82.7439 44.7605" stroke="#071FC0" stroke-width="4" stroke-linecap="round"/>
<path d="M82.4768 30.3456C82.6819 28.2947 85.4043 26.7315 87.0148 25.9263C88.4233 25.222 93.0357 24.3539 93.6884 26.6381C94.6256 29.9185 96.2142 33.4856 96.3578 36.9302C96.4523 39.1987 97.1586 41.4816 97.1586 43.6927" stroke="#071FC0" stroke-width="4" stroke-linecap="round"/>
<path d="M95.29 31.1464C95.7128 29.4084 96.2659 27.6086 97.9595 26.6677C99.0452 26.0645 100.572 25.2737 101.815 25.2737C103.942 25.2737 106.355 25.1274 107.97 26.7419C109.039 27.8111 108.881 29.5087 109.304 30.8647C109.736 32.2461 108.97 33.9797 109.497 35.2989C110.542 37.9115 109.438 41.4769 109.438 44.2266" stroke="#071FC0" stroke-width="4" stroke-linecap="round"/>
<path d="M124.12 23.6721C121.286 24.077 119.483 26.7927 117.861 28.8775C116.178 31.0421 116.111 33.6528 116.111 36.3518C116.111 39.4205 121.087 43.1589 123.986 43.1589C126.137 43.1589 128.942 43.6988 130.526 41.4979C132.245 39.1109 132.929 35.8296 132.929 32.8668C132.929 29.9926 131.716 27.531 129.725 25.5407C128.31 24.1253 125.701 24.206 123.853 24.206" stroke="#071FC0" stroke-width="4" stroke-linecap="round"/>
<path d="M139.335 23.939C139.73 25.8112 139.869 28.2764 139.869 30.1973C139.869 31.8738 140.342 33.4352 140.403 35.0912C140.468 36.8444 140.937 38.5383 140.937 40.341C140.937 41.4921 140.978 42.7073 141.471 43.6926" stroke="#071FC0" stroke-width="4" stroke-linecap="round"/>
<path d="M140.136 31.6804C142.173 29.5302 142.761 26.2477 145.876 25.5556C147.623 25.1673 151.155 25.6198 152.208 27.4093C152.845 28.4925 153.677 29.2956 153.75 30.6126C153.842 32.2557 154.284 33.8413 154.284 35.551C154.284 38.3481 154.818 41.1517 154.818 43.9597" stroke="#071FC0" stroke-width="4" stroke-linecap="round"/>
<path d="M153.628 31.0123C154.47 29.6205 155.345 28.3032 156.789 27.5008C158.15 26.7446 159.5 26.3282 160.937 25.7231C161.513 25.4805 163.723 25.4691 164.295 25.7231C165.306 26.1728 166.352 26.2617 166.961 27.3582C167.653 28.6032 168.172 29.5094 168.541 30.9136C168.936 32.4134 168.838 34.0039 168.838 35.5553C168.838 37.0858 168.64 38.6098 168.64 40.0984C168.64 41.4119 168.245 42.5972 168.245 43.8513" stroke="#071FC0" stroke-width="4" stroke-linecap="round"/>
<path d="M175.158 33.1852C178.254 33.1852 181.427 33.1852 184.442 33.1852C186.581 33.1852 188.778 32.5926 190.861 32.5926C192.432 32.5926 189.716 26.732 188.634 26.3158C187.426 25.8513 186.246 24.8269 185.034 24.2528C184.21 23.8625 182.632 24.2634 181.786 24.5052C180.821 24.781 179.827 26.111 179.01 26.656C178.43 27.0427 177.519 28.3804 177.331 29.0372C177.111 29.8062 176.406 30.4862 176.146 31.3306C175.621 33.036 175.637 34.9619 175.992 36.6967C176.342 38.4046 177.523 39.8568 178.362 41.2836C179.099 42.5354 180.718 42.6662 181.984 42.6662C183.37 42.6662 184.386 42.1287 185.715 41.8871C186.759 41.6972 187.976 40.8885 188.985 40.8885" stroke="#071FC0" stroke-width="4" stroke-linecap="round"/>
<path d="M196.293 23.5065C197.921 27.1443 196.397 31.5534 197.434 35.3139C197.844 36.7989 197.478 38.9149 197.478 40.4934C197.478 41.3822 197.478 42.2711 197.478 43.1599C197.478 43.4937 197.676 44.7516 197.676 43.8513" stroke="#071FC0" stroke-width="4" stroke-linecap="round"/>
<path d="M197.479 30.4198C198.354 29.527 199.15 28.6358 199.75 27.5558C200.027 27.0572 200.597 26.5099 201.133 26.2719C202.079 25.8511 203.388 24.9483 204.392 24.8892C206.888 24.7424 209.325 24.5098 210.669 27.062C212.255 30.076 212.49 33.39 212.49 36.7405C212.49 38.2014 212.095 39.5479 212.095 40.9873C212.095 42.0755 212.293 43.2632 212.293 44.2464" stroke="#071FC0" stroke-width="4" stroke-linecap="round"/>
<path d="M215.453 23.1114C216.703 23.1973 217.904 23.2263 219.151 23.1224C219.376 23.1036 219.623 23.0879 219.842 23.1553C220.701 23.4196 221.73 23.4865 222.63 23.5065C224.02 23.5374 225.431 23.704 226.81 23.704C228.397 23.704 229.86 23.9015 231.452 23.9015" stroke="#071FC0" stroke-width="4" stroke-linecap="round"/>
<path d="M223.383 16.5784C223.638 18.9609 223.556 21.015 223.556 23.3597C223.556 24.9705 223.73 26.5661 223.73 28.1953C223.73 29.4744 223.903 30.772 223.903 32.0098C223.903 33.2412 223.739 34.6062 223.913 35.8243C223.98 36.2972 224.106 37.0555 224.337 37.4715C224.614 37.9713 224.635 38.8202 224.982 39.2535C225.212 39.5415 225.233 40.1214 225.425 40.5057C225.75 41.1558 225.984 41.4162 226.581 41.7965C227.451 42.3501 228.203 42.9332 229.278 42.9332C230.059 42.9332 231.661 42.8483 232.052 42.0662" stroke="#071FC0" stroke-width="4" stroke-linecap="round"/>
<path d="M60.4478 26.4352C63.1762 25.4247 66.5434 23.8228 68.285 21.2104C69.6851 19.1102 70.097 15.8943 70.097 14.6628" stroke="#071FC0" stroke-width="4" stroke-linecap="round"/>
</svg>
