<svg width="300" height="200" viewBox="0 0 300 200" fill="none" xmlns="http://www.w3.org/2000/svg">
<path d="M222.177 43.7671C222.884 43.1538 223.284 42.4264 224.084 42.0687C224.691 41.7979 225.384 41.8163 226.05 41.5899C228.226 40.8506 230.175 41.8525 232.034 42.5894C233.161 43.0362 234.205 43.6051 235.305 44.0534C236.518 44.548 237.528 44.7997 238.848 44.8851C240.878 45.0165 244.338 44.2687 245.55 42.5847C246.88 40.7371 249.355 38.9735 249.6 36.5143C249.697 35.5326 250.844 34.2915 251.372 33.454C252.188 32.1605 252.893 31.0294 254.164 30.0905C257.058 27.9522 262.061 24.0898 265.977 25.2115C268.188 25.8448 270.405 27.6194 271.438 29.6652C272.742 32.2478 271.159 36.1513 270.111 38.4936C269.305 40.2939 267.269 42.535 265.568 43.496C263.231 44.8157 260.865 45.6457 258.432 46.6974C256.599 47.4895 254.399 48.5337 253.226 50.2254C252.15 51.7782 250.909 53.1828 250.711 55.1748C250.533 56.9708 250.468 58.9464 251.035 60.6611C252.16 64.067 254.365 67.2541 253.999 70.9351C253.843 72.5092 252.972 74.1179 252.199 75.476" stroke="#071FC0" stroke-width="1.8" stroke-linecap="round"/>
<path d="M222.216 44.1243C221.502 44.3841 220.929 45.735 220.929 46.4411C220.929 48.0736 220.7 49.3726 221.237 50.9817C222.03 53.3608 223.274 55.6362 224.54 57.7891C226.566 61.2334 229.486 63.9886 232.492 66.5557C235.817 69.3957 238.829 71.4836 242.704 73.2451C243.863 73.7717 245.351 74.7084 246.704 74.7451C247.851 74.7762 250.204 75.2451 251.204 75.2451" stroke="#071FC0" stroke-width="1.8" stroke-linecap="round"/>
<path d="M221.315 42.9661C220 44.6799 218.566 46.1587 216.953 47.5925C216.527 47.9716 216.134 48.3837 215.652 48.6937C215.361 48.8806 214.568 49.2294 214.501 49.6018C214.144 51.5607 214.61 53.8671 215.144 55.737C215.895 58.3642 216.857 60.8144 218.548 62.9878C220.512 65.513 222.824 67.835 225.048 70.1241C226.99 72.1232 229.665 73.9341 232.213 75.0723C233.831 75.7954 235.255 76.9482 236.818 77.7752C237.738 78.2623 238.583 78.8939 239.521 79.3627C240.201 79.7026 243.085 80.8321 243.704 81.2451" stroke="#071FC0" stroke-width="1.8" stroke-linecap="round"/>
<path d="M245.204 81.2451C246.433 80.5869 248.726 79.339 249.81 78.4903C250.41 78.0208 250.898 77.3376 251.305 76.7169C251.452 76.492 251.758 75.8826 251.949 75.7874" stroke="#071FC0" stroke-width="1.8" stroke-linecap="round"/>
<path d="M215.08 55.0779C214.652 55.256 214.07 56.0956 213.84 56.533C213.75 56.705 213.665 56.9437 213.503 57.0449C213.315 57.1624 213.463 57.3411 213.355 57.4761C212.866 58.0881 212.985 59.2037 213.113 59.9282C213.731 63.4341 216.202 66.1321 218.394 68.7935C218.819 69.3088 219.314 69.9142 219.89 70.262C220.513 70.6388 220.935 71.2596 221.547 71.6902C221.982 71.9961 222.3 72.4316 222.719 72.7545C223.567 73.4089 224.451 74.0636 225.333 74.6677C226.415 75.4095 227.971 76.1072 228.782 77.1737C229.544 78.1762 230.947 78.7399 231.84 79.5989C232.37 80.1087 233.111 80.6968 233.753 81.054C234.394 81.4098 235.024 81.7926 235.694 82.1183C235.984 82.2597 236.335 82.5669 236.664 82.6034C236.924 82.6323 237.139 82.7438 237.418 82.7246C237.723 82.7036 237.976 82.4309 238.267 82.3339C238.791 82.1592 239.259 81.7542 239.695 81.4177C240.195 81.0323 240.217 80.9348 239.695 80.9058C239.327 80.8853 238.792 80.4239 238.456 80.2725C235.277 78.8421 232.237 77.2835 229.213 75.5435C227.778 74.7179 226.216 74.1339 224.861 73.1722C223.559 72.2483 222.561 70.9313 221.628 69.6557C219.951 67.3647 218.545 64.8361 216.737 62.6497C216.278 62.0949 215.905 61.281 215.713 60.5884C215.445 59.6248 214.902 58.691 214.352 57.8668" stroke="#071FC0" stroke-width="1.8" stroke-linecap="round"/>
<path d="M62.5169 40.3718C56.9178 41.1866 51.3826 42.3434 46.0832 43.9738C44.7946 44.3702 48.0357 56.2349 48.2326 58.1761" stroke="#071FC0" stroke-width="1.8" stroke-linecap="round"/>
<path d="M176.546 14.1955C178.313 13.2166 181.823 12.8222 183.928 12.8264C184.733 12.8281 185.575 12.5662 186.371 12.4457C187.239 12.3144 187.152 14.2945 187.327 14.8753C188.173 17.6952 189.163 20.5985 189.46 23.5239" stroke="#071FC0" stroke-width="1.8" stroke-linecap="round"/>
<path d="M75.7974 169C76.4682 174.014 78.0906 178.18 79.5406 182.893C79.7686 183.634 95.2383 179.477 96.425 178.344" stroke="#071FC0" stroke-width="1.8" stroke-linecap="round"/>
<path d="M215.426 137.892C216.296 141.177 217.193 144.467 218.152 147.721C218.583 149.186 219.164 149.652 217.443 150.349C214.117 151.696 211.41 153.32 207.775 154.159C206.049 154.557 204.552 155.236 202.866 155.654" stroke="#071FC0" stroke-width="1.8" stroke-linecap="round"/>
<path d="M134.592 41.6255C134.897 39.6384 132.746 36.9058 131.371 35.6674C130.652 35.0191 128.887 34.2862 127.857 34.432C125.919 34.7063 125.152 38.4932 125.149 39.9639C125.141 44.454 130.737 48.1856 134.044 50.7222" stroke="#071FC0" stroke-width="1.8" stroke-linecap="round"/>
<path d="M134.974 41.956C135.968 40.7946 136.312 39.2645 137.294 38.1197C137.906 37.4056 138.918 37.2011 139.784 36.9713C142.354 36.2899 143.96 37.5268 143.666 40.1628C143.337 43.0997 140.778 44.6451 139.056 46.8423C138.527 47.5175 137.063 49.1416 136.279 49.4046C135.819 49.5591 135.166 50.0476 135.04 50.5193" stroke="#071FC0" stroke-width="1.8" stroke-linecap="round"/>
<path d="M152.669 39.8422C156.073 39.9721 160.41 41.7647 163.755 42.8066C165.767 43.4334 169.617 44.285 170.962 45.8539C171.773 46.801 174.364 47.5198 175.583 48.0068C176.602 48.4136 177.376 49.5177 178.224 50.2381C182.14 53.5647 186.468 55.6254 189.558 59.9885C192.419 64.0268 194.275 71.5686 195.013 76.1583C196.034 82.5076 195.697 87.0106 196.519 92.993C197.342 98.9754 195.32 104.465 195.026 110.322C194.789 115.041 192.73 121.042 191.224 125.558C188.588 133.464 182.719 141.963 176.582 147.844C174.152 150.172 171.785 153.744 168.704 155.397C167.452 156.069 167.007 157.231 165.516 157.688C163.501 158.307 161.468 159.592 159.556 160.49C155.376 162.453 150.383 162.754 145.806 162.917C141.856 163.057 137.465 163.086 133.564 162.937C129.423 162.779 125.198 162.272 121.137 161.513C118.828 161.081 116.713 159.515 114.476 158.871C107.288 156.802 102.989 152.35 97.3312 147.814C90.1297 142.04 85.6082 134.664 80.5339 127.113C71.5484 113.741 72.5182 85.0249 77.7954 72.3545C82.7934 63.8203 88.7787 57.0609 97.2951 51.6403C101.609 48.8943 106.831 47.6521 111.582 45.6659C115.154 44.1724 118.953 43.3982 122.813 43.0315" stroke="#071FC0" stroke-width="1.8" stroke-linecap="round" stroke-dasharray="3.6 3.6"/>
<path d="M108.799 69.4626C109.257 71.8074 109.524 74.3487 110.321 76.6177C110.663 77.5912 111.101 78.5306 111.432 79.5064C111.991 81.1555 112.3 83.0894 112.999 84.6617C113.641 86.1065 113.841 87.733 114.354 89.2169C114.92 90.851 115.266 92.5954 115.999 94.0611" stroke="#071FC0" stroke-width="1.8" stroke-linecap="round"/>
<path d="M97 74.0623C99.4037 72.2176 102.434 71.9071 105.177 70.7847C107.755 69.7301 110.706 69.5496 113.366 68.7737C115.623 68.1154 118.452 67.0627 120.798 67.0627" stroke="#071FC0" stroke-width="1.8" stroke-linecap="round"/>
<path d="M122.198 83.6617C125.424 82.8794 132.03 82.4487 130.564 77.3176C130.044 75.4952 128.585 74.4231 126.843 73.9067C124.965 73.3503 123.818 74.8087 122.621 75.9399C121.108 77.3688 120.198 78.9755 120.198 81.0618C120.198 82.3742 121.353 83.8895 122.154 84.8616C123.376 86.3452 125.473 87.965 127.387 88.5391C129.105 89.0546 131.289 88.2099 132.998 88.0614C133.565 88.012 135.131 87.9945 135.398 87.4614" stroke="#071FC0" stroke-width="1.8" stroke-linecap="round"/>
<path d="M145.597 71.4624C143.726 69.6313 141.146 68.4246 139.108 70.4625C138.364 71.2068 137.637 72.5103 137.297 73.4623C136.838 74.7498 137.238 76.0788 137.897 77.2509C138.829 78.9071 139.641 80.7052 140.997 82.0617C142.277 83.3416 145.177 85.3146 146.497 83.2617C148.6 79.9904 147.441 75.5946 146.297 72.1624C145.151 68.7234 144.167 65.2926 142.553 62.063C142.234 61.426 141.597 59.4398 141.597 60.152C141.597 61.0209 142.198 62.0347 142.408 62.8741C142.698 64.0347 143.433 65.571 143.997 66.6183C145.087 68.6421 146.368 71.3116 147.008 73.5512C147.314 74.6241 148.483 75.7849 148.597 76.8621C148.74 78.2191 149.834 79.3411 150.185 80.5729C150.502 81.6797 151.113 82.694 151.597 83.6616" stroke="#071FC0" stroke-width="1.8" stroke-linecap="round"/>
<path d="M127.282 106.99C127.793 108.522 128.272 110.062 128.907 111.545C129.265 112.383 129.362 113.488 129.847 114.25C130.29 114.947 129.687 112.602 129.698 111.776C129.72 110.136 129.543 108.297 130.879 107.13C132.311 105.879 135.024 110.434 135.513 111.513" stroke="#071FC0" stroke-width="1.8" stroke-linecap="round"/>
<path d="M138.374 104.819C136.942 105.851 136.757 108.878 138.374 109.978C139.986 111.075 142.017 110.544 142.869 108.752C143.222 108.009 143.663 107.765 143.697 106.905C143.725 106.191 143.432 105.479 142.928 104.951C141.717 103.685 139.677 102.591 138.021 103.605" stroke="#071FC0" stroke-width="1.8" stroke-linecap="round"/>
<path d="M145.133 95.675C145.668 100.298 147.16 104.495 149.033 108.635" stroke="#071FC0" stroke-width="1.8" stroke-linecap="round"/>
<path d="M142.933 100.793C143.04 100.145 146.665 99.9232 147.276 99.7607C147.996 99.5696 148.621 99.2125 149.398 99.2426" stroke="#071FC0" stroke-width="1.8" stroke-linecap="round"/>
<path d="M113 114.785C113.076 116.296 113.022 117.859 113.383 119.327C113.834 121.161 114.227 123.01 114.788 124.806C115.692 127.695 116.774 130.561 117.599 133.476C118.163 135.471 118.63 137.52 119.148 139.532C119.446 140.691 119.407 141.938 119.643 143.101C119.7 143.384 119.677 143.899 119.786 144.146C119.861 144.316 120.775 143.987 120.936 143.948C122.824 143.495 124.726 143.156 126.581 142.605C127.394 142.364 128.054 141.911 128.88 141.704C129.522 141.543 130.159 141.266 130.757 141.073C132.003 140.671 133.368 139.766 134.701 139.766" stroke="#071FC0" stroke-width="1.8" stroke-linecap="round"/>
<path d="M140.737 126.789C140.378 125.899 139.499 125.947 138.821 126.104C137.998 126.294 137.794 126.753 137.216 127.275C136.581 127.849 136.232 130.743 136.641 131.574C137.298 132.908 137.369 134.577 138.613 135.549C139.575 136.3 140.413 136.578 141.599 136.234C142.551 135.957 142.27 134.756 142.35 133.89C142.422 133.107 142.541 132.295 142.453 131.502C142.309 130.195 141.312 128.897 141.312 127.681C141.312 127.391 141.769 128.227 141.91 128.447C142.802 129.831 143.839 131.078 144.904 132.304C145.407 132.882 145.683 133.482 146.054 134.17C146.294 134.615 146.721 134.946 146.916 135.386" stroke="#071FC0" stroke-width="1.8" stroke-linecap="round"/>
<path d="M150.365 122.084C148.87 122.084 146.841 121.969 146.23 123.833C146.031 124.437 145.81 125.748 146.549 125.986C146.96 126.119 147.372 126.48 147.827 126.59C148.519 126.758 149.229 126.789 149.934 126.789C150.816 126.789 152.025 126.91 152.864 126.545C153.99 126.057 154.833 128.956 154.102 129.781C153.475 130.488 152.083 131.493 151.164 131.493C150.626 131.493 150.069 131.98 149.503 131.98" stroke="#071FC0" stroke-width="1.8" stroke-linecap="round"/>
<path d="M159.132 118.516C157.351 117.346 153.24 117.744 153.24 120.868C153.24 122.854 157.149 122.084 158.278 122.084C159.238 122.084 160.419 121.927 161.224 122.67C161.77 123.175 162.263 124.39 161.719 125.004C160.693 126.163 159.313 126.281 158.126 126.951" stroke="#071FC0" stroke-width="1.8" stroke-linecap="round"/>
<path d="M167.755 113C166.476 113.02 164.859 113.521 164.418 115.109C164.238 115.753 164.018 116.162 164.018 116.893C164.018 117.366 164.131 117.771 164.162 118.227C164.203 118.828 165.213 120.233 165.743 120.3C166.819 120.435 167.931 120.624 169.048 120.624C170.114 120.624 171.075 118.978 171.412 117.948C171.591 117.399 171.572 116.742 171.707 116.163C171.83 115.637 171.723 115.585 171.356 115.343C169.686 114.243 167.619 112.347 165.599 113.487" stroke="#071FC0" stroke-width="1.8" stroke-linecap="round"/>
</svg>
