<svg width="300" height="200" viewBox="0 0 300 200" fill="none" xmlns="http://www.w3.org/2000/svg">
<path d="M213.198 55.02C213.172 54.7121 213.253 54.4712 213.441 54.2971C213.628 54.1069 213.842 53.9949 214.083 53.9611C214.324 53.9272 214.545 53.9783 214.744 54.1143C214.958 54.232 215.078 54.4448 215.104 54.7527C215.118 54.8492 215.125 54.9548 215.124 55.0697C215.138 55.1662 215.151 55.2627 215.165 55.3592C215.644 55.0297 216.152 54.737 216.69 54.4811C217.242 54.2068 217.796 54.0061 218.352 53.8789C218.925 53.7494 219.486 53.7199 220.037 53.7902C220.602 53.8421 221.137 54.0295 221.641 54.3524C221.896 54.5299 222.024 54.7416 222.026 54.9873C222.043 55.2309 221.976 55.4535 221.824 55.6552C221.686 55.8386 221.491 55.9725 221.241 56.0569C220.988 56.1251 220.727 56.0797 220.459 55.9205C220.262 55.8006 220.046 55.7242 219.812 55.6915C219.594 55.6565 219.357 55.665 219.102 55.7172C218.861 55.7511 218.615 55.8102 218.364 55.8945C218.13 55.9766 217.905 56.0656 217.688 56.1615C216.874 56.5545 216.129 57.0281 215.452 57.5822C215.595 58.3659 215.754 59.1472 215.929 59.9263C216.085 60.5768 216.238 61.2525 216.385 61.9534C216.53 62.6383 216.76 63.2785 217.073 63.8742C217.21 64.1502 217.22 64.3949 217.102 64.6082C217.002 64.8353 216.837 64.998 216.604 65.0962C216.388 65.1921 216.145 65.2099 215.874 65.1494C215.619 65.0868 215.423 64.9175 215.286 64.6415C215.105 64.2896 214.964 63.924 214.862 63.5447C214.759 63.1655 214.657 62.7862 214.554 62.407C214.47 62.0415 214.378 61.6772 214.278 61.3141C214.192 60.9326 214.107 60.5591 214.023 60.1937C213.82 59.3364 213.643 58.4838 213.492 57.6358C213.354 56.7695 213.256 55.8976 213.198 55.02Z" fill="#071FC0"/>
<path d="M202.816 56.9436C203.063 56.4825 203.373 56.0618 203.746 55.6815C204.135 55.2989 204.558 54.9853 205.016 54.7406C205.472 54.48 205.957 54.3135 206.471 54.2413C206.984 54.153 207.512 54.1774 208.056 54.3143C208.582 54.4373 209.069 54.6396 209.519 54.9209C209.966 55.1862 210.338 55.5604 210.636 56.0435C210.867 56.4047 211.03 56.8083 211.125 57.2541C211.221 57.7 211.158 58.127 210.936 58.5353C210.742 58.907 210.481 59.206 210.152 59.4326C209.839 59.6569 209.487 59.8375 209.096 59.9743C208.721 60.1089 208.325 60.2055 207.907 60.2641C207.505 60.3205 207.117 60.3666 206.745 60.4024C206.325 60.445 205.902 60.4715 205.477 60.4819C205.068 60.49 204.651 60.4993 204.226 60.5097C204.456 61.2155 204.804 61.8227 205.269 62.3315C205.734 62.8404 206.317 63.1933 207.017 63.3903C207.203 63.4298 207.346 63.4589 207.447 63.4775C207.498 63.4868 207.54 63.4973 207.574 63.5089C207.623 63.5021 207.671 63.4953 207.719 63.4886C207.85 63.4866 207.957 63.488 208.04 63.4928C208.136 63.4793 208.224 63.4588 208.302 63.4315C208.412 63.3996 208.483 63.3814 208.515 63.3769C208.561 63.354 208.607 63.3312 208.653 63.3083C208.824 63.2353 208.968 63.1575 209.088 63.0751C209.224 62.9905 209.378 62.8623 209.551 62.6904C209.636 62.5965 209.748 62.4578 209.886 62.2744C210.024 62.091 210.141 61.9271 210.235 61.7826C210.365 61.5348 210.536 61.355 210.75 61.243C210.98 61.1287 211.226 61.127 211.487 61.238C211.715 61.3373 211.887 61.518 212.006 61.7802C212.139 62.024 212.141 62.2698 212.011 62.5175C211.633 63.2102 211.153 63.8269 210.573 64.3675C210.007 64.8898 209.316 65.2245 208.5 65.3717C207.845 65.4964 207.194 65.4729 206.547 65.3013C205.897 65.1136 205.307 64.8273 204.778 64.4423C204.12 63.9606 203.57 63.3735 203.129 62.681C202.687 61.9885 202.396 61.2585 202.256 60.4909C202.095 60.3986 201.963 60.2777 201.86 60.1281C201.771 59.9602 201.722 59.7867 201.713 59.6075C201.721 59.4261 201.763 59.2562 201.839 59.0979C201.913 58.9235 202.043 58.7987 202.229 58.7233C202.322 58.1034 202.518 57.5101 202.816 56.9436ZM208.687 56.7104C208.479 56.5101 208.177 56.3474 207.783 56.2223C207.459 56.1365 207.088 56.1229 206.67 56.1816C206.268 56.238 205.932 56.3589 205.663 56.5442C205.318 56.7731 205.023 57.0686 204.779 57.4309C204.532 57.7771 204.347 58.1557 204.224 58.5665C204.617 58.5606 205.01 58.5547 205.403 58.5488C205.796 58.5429 206.186 58.521 206.574 58.4829C206.783 58.4536 206.993 58.4242 207.202 58.3949C207.411 58.3656 207.619 58.3282 207.826 58.2828C207.89 58.2738 207.946 58.2659 207.994 58.2591C208.056 58.234 208.12 58.2169 208.184 58.2079C208.324 58.1554 208.427 58.1247 208.491 58.1157C208.569 58.0883 208.646 58.0529 208.722 58.0094C208.784 57.9843 208.861 57.9489 208.953 57.9032C209.029 57.8598 209.074 57.8289 209.088 57.8105C209.102 57.7922 209.123 57.7727 209.153 57.7521L209.185 57.4525C209.144 57.3926 209.112 57.3397 209.089 57.2937C209.08 57.2294 209.056 57.1754 209.017 57.1316C208.994 57.0856 208.944 57.0189 208.866 56.9314C208.804 56.8417 208.745 56.768 208.687 56.7104Z" fill="#071FC0"/>
<path d="M191.781 67.5445C191.545 67.4956 191.33 67.3699 191.138 67.1673C190.959 66.9463 190.901 66.7084 190.964 66.4536C191.131 65.6593 191.209 64.8694 191.197 64.0838C191.185 63.2982 191.139 62.501 191.059 61.6923C191.041 61.4488 191.016 61.2144 190.985 60.9892C190.951 60.748 190.925 60.5056 190.907 60.2621C190.832 60.0758 190.822 59.8886 190.878 59.7004C190.844 59.2294 190.811 58.7585 190.778 58.2875C190.742 57.8005 190.724 57.3192 190.723 56.8437C190.704 56.1247 190.686 55.4138 190.67 54.7109C190.667 53.9896 190.631 53.2649 190.562 52.5366C190.501 51.8726 190.442 51.2167 190.384 50.5688C190.34 49.9025 190.421 49.2516 190.627 48.6158C190.733 48.3221 190.905 48.1422 191.142 48.0762C191.376 47.9941 191.607 48.0027 191.834 48.1021C192.059 48.1854 192.236 48.3409 192.367 48.5686C192.513 48.7941 192.533 49.0537 192.427 49.3474C192.337 49.6389 192.288 49.9328 192.28 50.2291C192.272 50.5253 192.282 50.8274 192.309 51.1353C192.351 51.4409 192.394 51.7465 192.437 52.0521C192.48 52.3577 192.514 52.6564 192.538 52.9481C192.559 53.6832 192.58 54.4183 192.602 55.1534C192.62 55.8724 192.64 56.5994 192.661 57.3345C193.29 56.902 194.012 56.6121 194.827 56.4649C195.469 56.3585 196.136 56.3798 196.829 56.5285C197.536 56.659 198.135 56.9522 198.625 57.4082C198.909 57.68 199.15 57.9907 199.346 58.3403C199.541 58.6739 199.706 59.0361 199.843 59.4269C199.994 59.7994 200.114 60.1844 200.202 60.582C200.288 60.9635 200.374 61.337 200.458 61.7024C200.612 62.4516 200.734 63.2053 200.824 63.9636C200.928 64.7034 201.018 65.4617 201.094 66.2382C201.137 66.5438 201.064 66.7837 200.875 66.9578C200.688 67.1479 200.475 67.2599 200.233 67.2938C199.992 67.3276 199.764 67.2777 199.548 67.1439C199.335 67.0262 199.215 66.8134 199.188 66.5056C199.114 65.8599 199.04 65.2143 198.965 64.5687C198.891 63.923 198.793 63.2808 198.671 62.6419C198.593 62.3248 198.523 61.9984 198.459 61.6629C198.396 61.3274 198.308 60.9953 198.197 60.6665C198.142 60.5102 198.088 60.3619 198.036 60.2216C197.997 60.063 197.943 59.9067 197.872 59.7526C197.838 59.6262 197.778 59.4951 197.694 59.3594C197.625 59.2214 197.582 59.1455 197.563 59.1317C197.524 59.0879 197.494 59.0511 197.474 59.0212C197.451 58.9752 197.42 58.9303 197.381 58.8866C197.214 58.7461 197.113 58.67 197.079 58.6584C197.007 58.6192 196.947 58.5949 196.896 58.5856C196.843 58.5602 196.791 58.5348 196.738 58.5094C196.547 58.4377 196.335 58.3855 196.101 58.3527C195.867 58.32 195.645 58.3183 195.436 58.3476C194.885 58.3921 194.383 58.5608 193.932 58.8537C193.498 59.1443 193.128 59.5488 192.823 60.0671C192.947 61.1814 193.045 62.2911 193.118 63.3961C193.189 64.4851 193.106 65.5874 192.868 66.7031C192.822 66.9556 192.696 67.1701 192.491 67.3464C192.302 67.5205 192.066 67.5865 191.781 67.5445Z" fill="#071FC0"/>
<path d="M183.655 76.2615C183.714 76.5649 183.657 76.8024 183.484 76.9743C183.33 77.1599 183.132 77.2697 182.891 77.3035C182.65 77.3374 182.413 77.2885 182.181 77.157C181.952 77.0416 181.808 76.8322 181.749 76.5288C181.211 73.9802 180.747 71.4294 180.356 68.8765C179.963 66.3075 179.529 63.7441 179.056 61.1864C178.781 60.8642 178.718 60.5286 178.865 60.1799C178.825 60.0052 178.786 59.8466 178.749 59.7041C178.727 59.5433 178.695 59.3755 178.654 59.2009C178.598 58.9136 178.648 58.6852 178.804 58.5156C178.959 58.3299 179.147 58.2133 179.37 58.1656C179.609 58.1157 179.843 58.1484 180.073 58.2639C180.3 58.3632 180.457 58.5462 180.543 58.8129C180.799 58.6459 181.039 58.4891 181.265 58.3427C181.506 58.194 181.756 58.0442 182.013 57.8933C182.225 57.7652 182.462 57.6417 182.724 57.523C182.984 57.3881 183.255 57.2762 183.538 57.1874C183.821 57.0985 184.099 57.0349 184.372 56.9966C184.662 56.9559 184.934 56.967 185.189 57.0296C185.698 57.155 186.133 57.3892 186.493 57.7324C186.869 58.0733 187.194 58.4623 187.468 58.8994C187.725 59.3227 187.974 59.7552 188.216 60.1968C188.456 60.6223 188.618 61.0753 188.702 61.5555C188.788 62.0519 188.781 62.5285 188.681 62.9853C188.581 63.4422 188.411 63.8678 188.171 64.2623C187.948 64.6545 187.662 65.0144 187.314 65.342C186.967 65.6695 186.589 65.9603 186.182 66.2142C185.745 66.4887 185.288 66.7414 184.812 66.9722C184.336 67.2029 183.844 67.3786 183.336 67.499C183.115 67.5628 182.897 67.5852 182.681 67.5662C182.482 67.5451 182.288 67.5067 182.099 67.4511C182.341 68.9424 182.581 70.4176 182.819 71.8768C183.072 73.3337 183.351 74.7953 183.655 76.2615ZM180.979 60.8675C181.115 61.6028 181.243 62.3393 181.363 63.077C181.48 63.7985 181.607 64.5269 181.743 65.2623C181.849 65.3131 181.954 65.3639 182.06 65.4147C182.163 65.4494 182.275 65.4911 182.397 65.5396C182.537 65.602 182.648 65.6356 182.731 65.6404C182.811 65.6291 182.938 65.595 183.11 65.538C183.453 65.4079 183.795 65.2779 184.138 65.1478C184.478 65.0017 184.798 64.8256 185.097 64.6197C185.382 64.432 185.651 64.2386 185.901 64.0394C186.15 63.8242 186.368 63.564 186.555 63.259C186.675 63.0618 186.759 62.8449 186.808 62.6085C186.854 62.3559 186.842 62.0952 186.772 61.8263C186.711 61.5068 186.584 61.1884 186.392 60.8709C186.216 60.5512 186.043 60.2556 185.874 59.9841C185.773 59.8506 185.672 59.7172 185.572 59.5837C185.485 59.4319 185.384 59.2984 185.27 59.1832C185.104 59.0588 184.979 58.9861 184.895 58.9652C184.44 58.9962 184.049 59.0756 183.722 59.2034C183.396 59.3312 183.074 59.4912 182.757 59.6833C182.453 59.8571 182.152 60.047 181.852 60.253C181.553 60.4589 181.262 60.6638 180.979 60.8675Z" fill="#071FC0"/>
<path d="M171.18 59.5847C171.686 59.4482 172.222 59.3566 172.79 59.3098C173.355 59.2469 173.907 59.2678 174.447 59.3726C174.984 59.4612 175.485 59.6451 175.951 59.9242C176.417 60.2033 176.8 60.6005 177.102 61.1158C177.317 61.4793 177.453 61.8621 177.509 62.2642C177.58 62.6479 177.576 63.0338 177.499 63.4218C177.436 63.7914 177.308 64.1621 177.114 64.5337C176.934 64.887 176.71 65.2217 176.443 65.538C175.867 66.2257 175.214 66.8338 174.485 67.3626C173.756 67.8913 172.972 68.3292 172.135 68.6762C171.779 68.8246 171.405 68.9672 171.014 69.104C170.637 69.2225 170.248 69.3099 169.846 69.3663C169.444 69.4227 169.044 69.4378 168.647 69.4115C168.247 69.3692 167.864 69.2671 167.497 69.1054C167.235 68.9945 167.063 68.8218 166.981 68.5873C166.846 68.3274 166.706 68.0847 166.559 67.8592C166.413 67.6337 166.265 67.4002 166.117 67.1587C165.984 66.9149 165.867 66.6688 165.767 66.4205C165.667 66.1721 165.597 65.9113 165.559 65.6378C165.482 65.0909 165.523 64.5605 165.68 64.0463C165.851 63.5139 166.112 63.0345 166.462 62.6082C167.048 61.87 167.756 61.2459 168.586 60.7358C169.417 60.2257 170.281 59.842 171.18 59.5847ZM174.197 61.2772C173.74 61.1773 173.263 61.1623 172.764 61.2322C172.231 61.2906 171.708 61.4213 171.195 61.6245C170.68 61.8115 170.196 62.0434 169.743 62.3202C169.318 62.5603 168.886 62.875 168.449 63.2644C168.025 63.6354 167.732 64.0619 167.57 64.5438C167.476 64.8032 167.446 65.0615 167.482 65.3188C167.532 65.5579 167.607 65.8015 167.708 66.0498C167.822 66.2798 167.954 66.5156 168.102 66.7572C168.265 66.9804 168.411 67.2059 168.541 67.4336C168.808 67.4618 168.973 67.4714 169.038 67.4624C169.072 67.474 169.113 67.4764 169.162 67.4696C169.21 67.4628 169.25 67.4572 169.282 67.4527C169.608 67.4397 169.897 67.3911 170.147 67.3067C170.324 67.2819 170.545 67.2182 170.809 67.1155C171.216 66.9764 171.604 66.8155 171.972 66.6326C172.337 66.4337 172.67 66.2313 172.969 66.0253C173.314 65.7965 173.649 65.5528 173.973 65.294C174.298 65.0353 174.565 64.7764 174.775 64.5174C174.915 64.3501 175.047 64.1758 175.169 63.9947C175.238 63.903 175.285 63.8308 175.311 63.778C175.375 63.6541 175.428 63.5647 175.47 63.5097C175.509 63.4386 175.539 63.3605 175.56 63.2756C175.609 63.154 175.628 63.061 175.619 62.9967C175.631 62.9622 175.633 62.9209 175.627 62.8727C175.636 62.8221 175.646 62.7797 175.658 62.7453L175.621 62.4799C175.596 62.4178 175.581 62.3707 175.576 62.3385C175.572 62.3063 175.559 62.2753 175.539 62.2454C175.475 62.1395 175.415 62.0659 175.36 62.0244C175.319 61.9646 175.27 61.9059 175.212 61.8483C175.231 61.8621 175.203 61.8414 175.13 61.7861C175.072 61.7285 175.035 61.6928 175.016 61.679L174.796 61.513C174.709 61.4761 174.613 61.4322 174.507 61.3814C174.402 61.3306 174.298 61.2959 174.197 61.2772Z" fill="#071FC0"/>
<path d="M163.404 63.4308C163.71 63.3879 163.949 63.4528 164.121 63.6255C164.309 63.796 164.419 64.0019 164.453 64.2431C164.487 64.4844 164.438 64.7208 164.307 64.9525C164.189 65.1658 163.977 65.2939 163.672 65.3368C163.288 65.407 162.902 65.4611 162.514 65.4992C162.139 65.5189 161.765 65.5386 161.39 65.5584C161.585 66.8268 161.739 68.1008 161.853 69.3805C161.983 70.6579 162.031 71.9386 161.998 73.2225C162.004 73.5005 161.888 73.7218 161.648 73.8866C161.409 74.0514 161.163 74.1105 160.91 74.0639C160.626 74.0218 160.411 73.8961 160.267 73.6867C160.141 73.4911 160.083 73.2532 160.093 72.973C160.115 71.7236 160.048 70.4865 159.893 69.2618C159.753 68.0349 159.581 66.8044 159.375 65.5705C158.75 65.5597 158.117 65.55 157.476 65.5415C156.833 65.5169 156.201 65.5073 155.578 65.5126C155.3 65.5187 155.087 65.4011 154.938 65.1595C154.771 64.9041 154.704 64.6593 154.737 64.4251C154.779 64.1404 154.906 63.934 155.117 63.8059C155.327 63.6617 155.562 63.5877 155.824 63.5838C156.366 63.5897 156.909 63.6037 157.454 63.6258C157.996 63.6318 158.546 63.6366 159.104 63.6403C159.077 63.5622 159.052 63.4427 159.029 63.2818C158.826 61.8342 158.617 60.4038 158.403 58.9907C158.204 57.5753 158.076 56.1336 158.017 54.6657C158.014 54.4038 158.078 54.1651 158.212 53.9495C158.362 53.7317 158.574 53.6036 158.847 53.5653C159.088 53.5314 159.327 53.5964 159.563 53.76C159.816 53.9215 159.944 54.1331 159.948 54.395C160.003 55.9616 160.138 57.509 160.353 59.037C160.581 60.5467 160.82 62.0793 161.071 63.635C161.462 63.613 161.852 63.5911 162.243 63.5691C162.631 63.531 163.018 63.4849 163.404 63.4308Z" fill="#071FC0"/>
<path d="M145.667 69.0431C145.206 68.7961 144.855 68.4599 144.615 68.0343C144.373 67.5927 144.296 67.1033 144.385 66.566C144.48 66.077 144.671 65.6238 144.957 65.2065C145.243 64.7892 145.587 64.4375 145.99 64.1514C146.436 63.8264 146.923 63.5531 147.449 63.3317C147.976 63.1102 148.519 62.9519 149.08 62.8569C149.641 62.7619 150.204 62.7403 150.768 62.7923C151.347 62.8259 151.904 62.9364 152.439 63.1239C152.732 63.2303 152.912 63.4018 152.978 63.6386C153.044 63.8754 153.028 64.1073 152.928 64.3344C152.845 64.5593 152.69 64.737 152.462 64.8673C152.234 64.9976 151.973 65.0096 151.68 64.9032C151.264 64.7483 150.811 64.6725 150.319 64.6758C149.828 64.6791 149.337 64.7479 148.848 64.8822C148.372 64.9982 147.93 65.1831 147.523 65.437C147.116 65.6909 146.789 65.991 146.542 66.3372C146.473 66.4289 146.425 66.4931 146.397 66.5298C146.385 66.5642 146.363 66.6411 146.331 66.7605L146.32 67.0326C146.389 67.1706 146.441 67.2534 146.478 67.2811C146.829 67.4451 147.178 67.5355 147.525 67.5525C147.885 67.5511 148.244 67.5337 148.6 67.5001C149.103 67.4623 149.614 67.4234 150.133 67.3834C150.666 67.3251 151.182 67.3183 151.68 67.3632C152.195 67.4059 152.679 67.5266 153.133 67.7253C153.588 67.924 153.994 68.2523 154.354 68.7103C154.755 69.2281 154.982 69.7949 155.035 70.4106C155.103 71.008 154.945 71.5796 154.562 72.1253C154.18 72.671 153.704 73.082 153.136 73.3585C152.566 73.6189 151.981 73.8322 151.381 73.9984C150.843 74.1394 150.274 74.2356 149.675 74.2869C149.091 74.3359 148.515 74.3184 147.945 74.2342C147.394 74.1639 146.864 74.0087 146.355 73.7685C145.843 73.5122 145.398 73.1482 145.02 72.6763C144.84 72.4393 144.782 72.2014 144.847 71.9627C144.909 71.7079 145.029 71.5107 145.206 71.371C145.397 71.213 145.616 71.1332 145.862 71.1315C146.124 71.1276 146.353 71.243 146.55 71.4778C146.827 71.8161 147.18 72.0536 147.609 72.1902C148.038 72.3269 148.492 72.4027 148.97 72.4177C149.461 72.4143 149.946 72.3627 150.424 72.2629C150.9 72.1469 151.325 72.0217 151.7 71.8871C151.902 71.8095 152.102 71.7159 152.3 71.6061C152.512 71.478 152.681 71.3395 152.807 71.1905C152.95 71.0393 153.043 70.8787 153.084 70.7089C153.124 70.5229 153.089 70.331 152.979 70.1332C152.762 69.7537 152.448 69.5025 152.037 69.3797C151.642 69.2547 151.233 69.2054 150.811 69.2319C150.388 69.2584 149.959 69.3021 149.525 69.363C149.091 69.4239 148.654 69.4687 148.216 69.4975C147.775 69.5101 147.337 69.4895 146.903 69.4356C146.469 69.3816 146.057 69.2508 145.667 69.0431Z" fill="#071FC0"/>
<path d="M139.967 75.0581C139.987 74.268 140.026 73.4917 140.083 72.7293C140.154 71.9485 140.175 71.1664 140.147 70.3831C140.106 69.6181 140.01 68.8771 139.86 68.1601C139.724 67.4247 139.668 66.67 139.69 65.896C139.686 65.6342 139.804 65.4208 140.043 65.2561C140.299 65.089 140.544 65.0219 140.778 65.0547C141.062 65.0967 141.269 65.2236 141.397 65.4352C141.541 65.6446 141.615 65.8802 141.619 66.1421C141.607 66.5211 141.628 66.9036 141.682 67.2896C141.752 67.6734 141.822 68.0571 141.892 68.4409C141.996 69.1808 142.052 69.9274 142.059 70.6808C142.071 71.4664 142.048 72.2404 141.991 73.0029C141.95 73.7631 141.918 74.5302 141.896 75.3042C141.883 75.5683 141.758 75.7827 141.518 75.9475C141.279 76.1123 141.042 76.1783 140.808 76.1455C140.523 76.1035 140.309 75.9777 140.165 75.7684C140.021 75.559 139.955 75.3222 139.967 75.0581ZM139.568 63.7974C139.451 63.7811 139.332 63.7486 139.21 63.7001C139.086 63.6354 138.992 63.5502 138.928 63.4444C138.862 63.3225 138.806 63.2155 138.76 63.1235C138.715 63.0315 138.683 62.9212 138.665 62.7925C138.644 62.6478 138.648 62.4996 138.676 62.3481C138.7 62.0496 138.799 61.8224 138.974 61.6667C139.025 61.5611 139.103 61.4763 139.209 61.4123C139.37 61.2749 139.563 61.1904 139.788 61.1588C140.011 61.1112 140.22 61.1392 140.415 61.2431C140.505 61.2962 140.595 61.3573 140.687 61.4264C140.777 61.4795 140.853 61.5589 140.917 61.6647C140.961 61.7406 141.005 61.8246 141.051 61.9166C141.113 62.0063 141.142 62.1006 141.14 62.1993C141.14 62.3142 141.138 62.421 141.136 62.5197C141.133 62.6185 141.105 62.7126 141.052 62.8021C140.988 62.9259 140.935 63.0154 140.893 63.0704C140.852 63.1254 140.78 63.201 140.679 63.2972C140.624 63.3706 140.534 63.4324 140.41 63.4826C140.099 63.723 139.818 63.8279 139.568 63.7974Z" fill="#071FC0"/>
<path d="M128.804 66.8572C128.777 66.5493 128.858 66.3083 129.047 66.1342C129.233 65.9441 129.447 65.8321 129.689 65.7982C129.93 65.7644 130.15 65.8155 130.35 65.9515C130.563 66.0692 130.683 66.282 130.71 66.5898C130.723 66.6863 130.73 66.792 130.73 66.9068C130.743 67.0034 130.757 67.0999 130.77 67.1964C131.249 66.8668 131.757 66.5741 132.296 66.3182C132.847 66.044 133.402 65.8433 133.958 65.7161C134.53 65.5866 135.092 65.557 135.643 65.6273C136.208 65.6793 136.742 65.8667 137.247 66.1896C137.501 66.3671 137.63 66.5787 137.631 66.8245C137.649 67.068 137.582 67.2906 137.43 67.4924C137.291 67.6758 137.097 67.8097 136.846 67.894C136.594 67.9623 136.333 67.9168 136.065 67.7577C135.867 67.6377 135.652 67.5614 135.417 67.5286C135.199 67.4936 134.963 67.5022 134.708 67.5544C134.466 67.5882 134.22 67.6473 133.97 67.7317C133.735 67.8138 133.51 67.9028 133.294 67.9987C132.48 68.3917 131.734 68.8653 131.058 69.4194C131.2 70.203 131.359 70.9844 131.534 71.7635C131.691 72.4139 131.843 73.0896 131.991 73.7906C132.136 74.4754 132.365 75.1157 132.678 75.7114C132.815 75.9874 132.825 76.232 132.707 76.4454C132.608 76.6725 132.442 76.8352 132.21 76.9333C131.994 77.0293 131.75 77.047 131.479 76.9866C131.225 76.9239 131.029 76.7546 130.891 76.4786C130.711 76.1267 130.569 75.7612 130.467 75.3819C130.365 75.0026 130.262 74.6234 130.16 74.2441C130.076 73.8787 129.984 73.5144 129.884 73.1512C129.797 72.7697 129.712 72.3963 129.628 72.0308C129.426 71.1735 129.249 70.3209 129.097 69.473C128.959 68.6067 128.861 67.7347 128.804 66.8572Z" fill="#071FC0"/>
<path d="M118.219 77.8626C117.983 77.8137 117.768 77.688 117.576 77.4854C117.397 77.2644 117.339 77.0265 117.402 76.7717C117.569 75.9774 117.647 75.1875 117.635 74.4019C117.623 73.6163 117.577 72.8191 117.497 72.0104C117.479 71.7669 117.454 71.5325 117.423 71.3074C117.389 71.0661 117.363 70.8237 117.345 70.5802C117.27 70.3939 117.26 70.2067 117.316 70.0185C117.282 69.5475 117.249 69.0766 117.216 68.6056C117.18 68.1186 117.162 67.6373 117.161 67.1619C117.142 66.4429 117.124 65.7319 117.108 65.029C117.105 64.3078 117.069 63.583 117 62.8547C116.939 62.1907 116.88 61.5348 116.822 60.8869C116.778 60.2207 116.859 59.5697 117.065 58.9339C117.171 58.6402 117.343 58.4603 117.579 58.3943C117.814 58.3122 118.045 58.3209 118.272 58.4202C118.497 58.5035 118.674 58.659 118.805 58.8867C118.951 59.1122 118.971 59.3718 118.865 59.6655C118.775 59.957 118.726 60.2509 118.718 60.5472C118.71 60.8435 118.72 61.1455 118.747 61.4534C118.789 61.759 118.832 62.0646 118.875 62.3702C118.918 62.6758 118.952 62.9745 118.976 63.2663C118.997 64.0013 119.018 64.7364 119.04 65.4715C119.058 66.1905 119.078 66.9175 119.099 67.6526C119.728 67.2201 120.45 66.9302 121.265 66.783C121.907 66.6766 122.574 66.6979 123.267 66.8466C123.974 66.9771 124.573 67.2703 125.063 67.7263C125.347 67.9981 125.588 68.3088 125.784 68.6584C125.979 68.992 126.144 69.3542 126.281 69.745C126.432 70.1175 126.552 70.5025 126.64 70.9001C126.726 71.2817 126.812 71.6551 126.896 72.0206C127.05 72.7698 127.172 73.5235 127.262 74.2817C127.366 75.0216 127.456 75.7798 127.532 76.5563C127.575 76.8619 127.502 77.1018 127.313 77.2759C127.126 77.4661 126.913 77.5781 126.671 77.6119C126.43 77.6457 126.202 77.5958 125.986 77.462C125.773 77.3443 125.653 77.1315 125.626 76.8237C125.552 76.1781 125.478 75.5324 125.403 74.8868C125.329 74.2412 125.231 73.5989 125.109 72.9601C125.031 72.6429 124.961 72.3165 124.897 71.981C124.834 71.6455 124.746 71.3134 124.635 70.9846C124.58 70.8283 124.526 70.68 124.474 70.5398C124.435 70.3812 124.38 70.2248 124.31 70.0708C124.276 69.9443 124.216 69.8133 124.132 69.6775C124.063 69.5395 124.02 69.4636 124.001 69.4498C123.962 69.4061 123.932 69.3692 123.912 69.3393C123.889 69.2933 123.858 69.2485 123.819 69.2047C123.652 69.0642 123.551 68.9881 123.517 68.9765C123.445 68.9373 123.385 68.913 123.334 68.9037C123.281 68.8783 123.229 68.8529 123.176 68.8275C122.985 68.7558 122.773 68.7036 122.539 68.6709C122.305 68.6381 122.083 68.6364 121.874 68.6657C121.323 68.7103 120.821 68.879 120.37 69.1718C119.936 69.4624 119.566 69.8669 119.261 70.3852C119.385 71.4996 119.483 72.6092 119.556 73.7142C119.627 74.8032 119.544 75.9055 119.306 77.0212C119.26 77.2738 119.134 77.4882 118.929 77.6645C118.74 77.8386 118.504 77.9046 118.219 77.8626Z" fill="#071FC0"/>
<path d="M115.465 76.8218C115.561 77.038 115.563 77.2838 115.47 77.5592C115.378 77.8346 115.206 78.0144 114.956 78.0988C114.107 78.3654 113.246 78.478 112.371 78.4368C111.493 78.3794 110.653 78.12 109.851 77.6586C109.064 77.1949 108.457 76.5502 108.03 75.7245C107.616 74.8805 107.444 74.0026 107.513 73.0909C107.579 72.2779 107.853 71.5425 108.335 70.8845C108.816 70.2265 109.397 69.6859 110.075 69.2627C110.676 68.8668 111.318 68.5308 112 68.2546C112.683 67.9784 113.383 67.8229 114.1 67.7879C114.378 67.7817 114.618 67.8547 114.819 68.0068C115.035 68.1406 115.162 68.3442 115.2 68.6176C115.234 68.8589 115.169 69.0976 115.006 69.3338C114.858 69.5677 114.646 69.6958 114.371 69.718C113.849 69.742 113.346 69.8372 112.861 70.0036C112.376 70.1701 111.915 70.3905 111.478 70.6651C111.222 70.8321 110.968 71.0072 110.715 71.1903C110.478 71.3711 110.275 71.5636 110.107 71.7676C109.925 71.9899 109.775 72.2077 109.657 72.421C109.556 72.6321 109.491 72.8708 109.463 73.1372C109.434 73.4036 109.449 73.6804 109.505 73.9676C109.562 74.2549 109.651 74.5377 109.772 74.8159C109.907 75.0758 110.071 75.3151 110.266 75.5338C110.459 75.7364 110.679 75.9024 110.926 76.0316C111.44 76.304 111.98 76.4661 112.544 76.5181C113.123 76.5517 113.671 76.4831 114.188 76.3121C114.439 76.2278 114.685 76.2261 114.926 76.3071C115.167 76.3881 115.347 76.5597 115.465 76.8218Z" fill="#071FC0"/>
<path d="M100.508 81.0356C99.95 81.1468 99.3801 81.2349 98.7988 81.3C98.2198 81.3813 97.6409 81.405 97.0621 81.3714C95.8541 81.2948 94.7525 80.9245 93.7573 80.2605C92.7622 79.5964 91.9995 78.7193 91.4694 77.6292C90.7816 76.2332 90.3488 74.7851 90.1712 73.2847C90.0096 71.7821 90.1685 70.2837 90.6478 68.7896C90.8422 68.1883 91.0678 67.5745 91.3243 66.9481C91.5809 66.3217 91.913 65.7666 92.3208 65.283C93.2194 64.2057 94.3387 63.4747 95.6788 63.0899C96.042 62.9898 96.3902 62.9 96.7235 62.8204C97.0728 62.7386 97.4267 62.689 97.785 62.6715C98.0607 62.6493 98.3605 62.6236 98.6845 62.5946C99.0222 62.5472 99.3346 62.5526 99.6216 62.6107C99.8902 62.6551 100.139 62.7349 100.369 62.8504C100.612 62.9475 100.857 63.0606 101.105 63.1899C101.298 63.2777 101.481 63.3585 101.656 63.4325C101.844 63.4881 102.026 63.5609 102.203 63.6509C102.751 63.9349 103.206 64.3139 103.568 64.788C103.943 65.2437 104.267 65.7395 104.539 66.2754C104.855 66.8872 105.133 67.5287 105.375 68.2001C105.617 68.8714 105.787 69.5609 105.887 70.2686C106.028 71.5116 105.955 72.7438 105.667 73.965C105.56 74.4884 105.413 75.0175 105.225 75.5522C105.054 76.0847 104.783 76.5491 104.412 76.9455C103.956 77.4359 103.436 77.7056 102.853 77.7547C102.267 77.7876 101.685 77.6725 101.107 77.4091C100.423 77.095 99.912 76.6665 99.5734 76.1235C98.9137 76.3309 98.2301 76.4268 97.5227 76.4112C96.8291 76.3773 96.1946 76.1218 95.6193 75.6449C95.0256 75.1541 94.5965 74.5501 94.3319 73.8328C94.0833 73.1132 93.9543 72.3687 93.9448 71.5992C93.9457 71.2546 93.9637 70.9159 93.999 70.5829C94.0321 70.2339 94.1087 69.9033 94.229 69.5912C94.3492 69.2791 94.5153 69.0016 94.7272 68.7587C94.9369 68.4997 95.2108 68.289 95.5488 68.1268C96.0387 67.8777 96.5605 67.7389 97.1141 67.7105C97.6816 67.6637 98.2364 67.6433 98.7784 67.6492C98.7886 67.2542 98.9134 66.9743 99.1527 66.8095C99.392 66.6447 99.6287 66.5787 99.8629 66.6115C100.148 66.6536 100.362 66.7793 100.506 66.9887C100.65 67.1981 100.716 67.4348 100.704 67.6989C100.668 68.3764 100.671 69.0403 100.713 69.6904C100.769 70.3222 100.828 70.9781 100.891 71.6582C100.933 72.1935 100.947 72.7 100.932 73.1777C100.914 73.6394 100.958 74.1253 101.062 74.6355C101.078 74.7481 101.112 74.8745 101.165 75.0147C101.215 75.1389 101.277 75.2286 101.35 75.2839C101.703 75.5788 102.088 75.7544 102.506 75.8106C102.656 75.8225 102.745 75.8181 102.775 75.7975C102.867 75.7518 102.941 75.6923 102.996 75.6189C103.203 75.3438 103.377 74.9997 103.515 74.5866C103.68 74.1207 103.807 73.6272 103.898 73.106C103.989 72.5849 104.041 72.0774 104.054 71.5836C104.046 70.945 103.957 70.3096 103.786 69.6776C103.632 69.0432 103.423 68.4328 103.16 67.8464C102.973 67.4463 102.769 67.0404 102.547 66.6287C102.323 66.2008 102.029 65.8567 101.664 65.5962C101.517 65.4856 101.358 65.4014 101.186 65.3435C101.014 65.2856 100.848 65.2186 100.69 65.1424C100.495 65.0385 100.3 64.9347 100.105 64.8308C99.9102 64.727 99.7094 64.6403 99.5029 64.5709C99.3353 64.5452 99.2021 64.5311 99.1033 64.5285C99.0046 64.526 98.9713 64.5224 99.0035 64.5179L98.0524 64.5775C97.7628 64.6181 97.4653 64.6599 97.1597 64.7027C96.8702 64.7433 96.5852 64.8161 96.3047 64.9211C95.7552 65.0965 95.2252 65.3513 94.7144 65.6853C94.2014 66.0033 93.8017 66.4284 93.5156 66.9605C92.8509 68.1854 92.4009 69.4786 92.1654 70.8401C91.93 72.2016 92.031 73.5651 92.4685 74.9306C92.6624 75.4938 92.8792 76.0456 93.119 76.586C93.3588 77.1264 93.6894 77.6131 94.111 78.046C94.4431 78.4258 94.8385 78.7312 95.2973 78.962C95.7539 79.1768 96.2244 79.3158 96.7089 79.3791C97.2255 79.4378 97.7435 79.4472 98.2627 79.4071C98.798 79.3649 99.3207 79.2915 99.8309 79.1872C100.295 79.1057 100.764 78.9989 101.237 78.8669C101.725 78.7165 102.135 78.4867 102.469 78.1775C102.656 77.9873 102.884 77.9224 103.155 77.9829C103.44 78.0249 103.661 78.1415 103.819 78.3325C103.998 78.5535 104.064 78.7902 104.017 79.0428C103.987 79.2931 103.869 79.5064 103.664 79.6827C103.245 80.0859 102.754 80.3844 102.191 80.5782C101.628 80.7721 101.067 80.9245 100.508 81.0356ZM98.9609 71.7566C98.9412 71.3822 98.9146 71.0169 98.881 70.6608C98.8475 70.3047 98.822 69.9474 98.8045 69.5891C98.607 69.584 98.4106 69.5869 98.2153 69.5979C98.0361 69.6066 97.8489 69.6165 97.6536 69.6275C97.5227 69.6295 97.3929 69.6395 97.2642 69.6575C97.1355 69.6756 97.0069 69.6936 96.8782 69.7117C96.7058 69.7686 96.6035 69.7994 96.5713 69.8039C96.5391 69.8084 96.5081 69.821 96.4782 69.8416C96.3402 69.9101 96.2413 69.965 96.1815 70.0062C96.0847 70.1346 96.0374 70.2068 96.0397 70.2229C95.9773 70.3628 95.9403 70.45 95.9287 70.4845C95.9149 70.5028 95.9043 70.6027 95.897 70.7841C95.8806 70.9012 95.8722 71.0172 95.872 71.132C95.8717 71.2469 95.8702 71.3537 95.8677 71.4525C95.8939 71.99 95.9661 72.5047 96.0843 72.9966C96.2002 73.4723 96.4404 73.8404 96.805 74.1009C96.915 74.1839 96.9976 74.2461 97.0526 74.2876C97.1054 74.313 97.2098 74.3558 97.3658 74.4159C97.3291 74.3882 97.3544 74.3929 97.4416 74.4299C97.5426 74.4485 97.6092 74.4556 97.6413 74.451C97.7079 74.4581 97.7665 74.4663 97.817 74.4756C97.8675 74.4849 97.9249 74.4851 97.9893 74.476C98.1546 74.4857 98.3327 74.4689 98.5234 74.4257C98.7119 74.3665 98.8924 74.3084 99.0648 74.2514C99.0651 74.1365 99.0585 74.0309 99.0449 73.9344C99.0475 73.8356 99.05 73.7368 99.0526 73.6381C99.0487 73.3762 99.0402 73.0822 99.0273 72.756C99.0121 72.4137 98.9899 72.0806 98.9609 71.7566Z" fill="#071FC0"/>
<path d="M117.977 49.9215C90.7824 54.5198 46.6942 57.3506 43.0791 61.6857C39.464 66.0208 40.0268 75.6513 42.078 83.1108C43.7672 89.2539 46.087 94.701 49.1321 96.9879C52.6419 99.6237 59.2419 97.6947 63.1412 97.1418C89.426 93.4145 116.418 90.5149 142.896 88.5931C158.736 87.4434 173.556 83.4714 189.247 81.03C196.361 79.9231 205.8 80.2003 212.803 78.4243C218.372 77.012 223.363 76.3451 229.038 75.5404C234.016 74.8345 239.504 75.2585 244.296 73.7794C249.046 72.3132 249.95 73.1247 254.612 71.4467C256.976 70.5959 260.202 67.5554 259.832 64.942C259.469 62.3825 259.296 58.6418 258.522 56.1782C256.313 49.1402 256.574 45.6038 253.503 38.7768C252.076 35.6052 247.098 34.0116 244.236 32.6673C242.303 31.7591 238.945 32.186 236.886 32.478C230.734 33.3503 224.553 33.6112 218.404 34.4831C201.461 36.8856 188.743 41.3892 171.789 43.7933C163.918 44.9095 150.137 44.851 142.472 47.0288C133.95 49.45 126.693 48.4477 117.977 49.9215Z" stroke="#071FC0" stroke-width="1.8" stroke-linecap="round"/>
<path d="M59.9687 67.8743C58.7934 67.9868 55.9687 67.5913 55.1116 68.456C54.1688 69.4073 52.8028 71.0685 52.7006 72.4835C52.6077 73.7708 53.0004 75.5267 53.6578 76.645C54.1144 77.4217 54.8941 79.0302 55.8628 79.2532C57.7724 79.6929 59.9176 79.6756 61.8285 79.1566C64.2013 78.5121 64.7363 74.4933 64.1522 72.5723C63.5715 70.6625 62.5219 68.9854 60.5849 68.3375" stroke="#071FC0" stroke-width="1.8" stroke-linecap="round"/>
<path d="M61.6162 77.5503C64.671 79.8463 66.3957 83.3571 68.892 86.153" stroke="#071FC0" stroke-width="1.8" stroke-linecap="round"/>
<path d="M121.01 126.922C106.152 107.049 71.8538 106.733 81.5414 50.6834C89.5516 4.33906 188.45 1.61053 216.93 34.6895M124.178 162.85C110.309 190.516 57.8122 195.574 46.0511 172.052C35.4627 150.875 61.3861 141.381 64.8913 114.654C65.5051 109.974 65.7662 105.741 65.7721 101.947" stroke="#071FC0" stroke-width="1.8" stroke-linecap="round" stroke-dasharray="4 4"/>
<path d="M133.376 134.139C132.677 132.069 129.075 132.265 127.408 132.056C125.055 131.76 121.335 132.64 119.09 133.163C118.023 133.412 117.005 133.991 116.151 134.667C115.388 135.271 113.957 136.285 113.48 137.119C111.436 140.686 111.65 144.341 112.287 148.276C113.697 156.987 127.249 157.684 133.317 154.568C135.56 153.416 137.558 151.682 138.097 149.147C138.453 147.477 138.253 145.516 138.201 143.813C138.121 141.245 137.475 139.041 136.34 136.793" stroke="#071FC0" stroke-width="1.8" stroke-linecap="round"/>
<path d="M129.893 136.71C128.052 136.005 126.716 135.89 124.808 136.17C123.651 136.34 121.891 136.248 120.841 136.81C120.192 137.157 118.653 137.974 118.223 138.553C117.866 139.032 117.929 140.062 117.554 140.324" stroke="#071FC0" stroke-width="1.8" stroke-linecap="round"/>
<path d="M108.247 135.516C105.484 132.687 102.588 130.574 98.6906 129.191C97.779 128.868 96.3483 128.426 95.3554 128.439C93.6709 128.463 91.8551 130.245 90.6106 131.089C88.7046 132.38 87.193 134.15 85.6253 135.771C84.7165 136.711 83.6541 137.497 82.8572 138.532C82.676 138.767 82.7093 139.124 82.5133 139.299C82.4087 139.392 81.9133 139.852 82.0122 139.878C83.0376 140.144 85.3792 139.308 86.372 138.985C87.4676 138.63 88.5465 137.85 89.498 137.243C90.2556 136.76 91.3246 136.224 92.2082 136.034C92.9012 135.884 91.6674 138.116 91.5365 138.429C90.9001 139.951 90.3457 141.238 90.1585 142.862C90.0938 143.423 89.8716 144.083 89.6802 144.629C89.4332 145.333 89.9133 144.987 90.2993 144.793C90.999 144.442 91.5257 144.048 92.1384 143.579C92.8905 143.004 94.2531 142.739 94.7936 142.016C94.9217 141.844 96.3651 140.175 96.4927 140.399C96.6987 140.76 96.4085 141.412 96.6703 141.861C97.0664 142.539 97.3394 143.388 97.5043 144.152C97.5925 144.561 97.615 145.093 97.8 145.473C98.1772 146.248 98.3998 145.26 98.6048 144.925C98.8787 144.477 99.3271 144.122 99.5891 143.683C99.8364 143.27 99.8295 142.754 100.07 142.32C100.412 141.701 100.938 141.264 101.44 140.754C103.349 138.82 105.852 137.675 107.989 136.091" stroke="#071FC0" stroke-width="1.8" stroke-linecap="round"/>
<path d="M151.103 113.232C142.852 114.959 143.889 128.021 144.04 134.376C144.04 132.532 146.028 131.197 147.615 130.491C148.375 130.154 151.097 130.385 151.588 130.999C152.426 132.047 154.934 131.992 156.179 131.992C157.413 131.992 159.99 131.244 158.827 130.315C158.214 129.824 157.323 129.907 156.576 129.432C155.827 128.955 155.428 128.124 154.766 127.71C152.646 126.385 155.614 126.43 156.554 126.43C158.856 126.43 161.484 125.672 163.109 124.047C164.295 122.86 165.572 121.266 163.286 121.266C161.397 121.266 159.569 120.471 157.79 120.471C156.52 120.471 160.011 119.209 161.211 118.794C163.455 118.017 166.898 117.132 168.185 114.909C169.254 113.064 168.086 113.409 166.464 112.945C161.996 111.669 155.686 112.273 151.103 113.232Z" stroke="#071FC0" stroke-width="1.8" stroke-linecap="round"/>
<path d="M179.268 146.424C179.434 147.926 179.65 149.1 180.239 150.473C180.71 151.571 181.126 152.693 181.61 153.785C182.024 154.722 182.524 155.63 183.063 156.501C183.499 157.207 183.828 158.016 184.344 158.671C184.659 159.07 185.037 159.461 185.379 159.839C185.654 160.143 186.16 160.42 186.35 160.752C186.473 160.969 187.032 161.118 187.263 161.273" stroke="#071FC0" stroke-width="1.8" stroke-linecap="round"/>
<path d="M194.499 142.736C195.483 145.294 196.992 147.548 198.267 149.956C199.211 151.74 200.121 153.553 201.069 155.33C201.936 156.957 202.806 158.437 203.976 159.863C204.987 161.095 206.038 162.414 206.797 163.822C207.498 165.123 209.371 164.769 210.718 164.769C214.937 164.769 218.931 163.596 223.015 162.665C224.747 162.27 226.33 161.812 228.007 161.249C229.92 160.608 231.588 160.242 233.19 159.031C234.132 158.318 235.289 157.923 236.25 157.233C237.034 156.67 237.635 155.997 238.354 155.378C240.289 153.713 238.776 150.05 238.182 148.005C237.528 145.754 235.773 143.395 234.204 141.665C233.057 140.4 232.02 139.027 230.799 137.83C228.908 135.974 226.426 134.323 224.019 133.183C222.809 132.609 221.674 132.46 220.347 132.685C216.455 133.346 212.623 133.502 208.767 134.474C205.64 135.261 202.48 136.578 199.701 138.222C197.735 139.386 195.889 140.909 194.671 142.736" stroke="#071FC0" stroke-width="1.8" stroke-linecap="round"/>
<path d="M194.468 142.696C193.591 143.572 192.738 145.346 192.567 146.657C192.474 147.375 192.324 148.177 192.013 148.837C191.593 149.725 191.548 150.651 191.783 151.591C192.472 154.348 193.204 157.249 194.289 159.872C195.266 162.237 196.174 164.583 197.368 166.853C197.708 167.5 198.13 168.089 198.458 168.727C199.032 169.844 199.79 170.843 200.39 171.921C200.671 172.428 201.012 173.099 201.422 173.509C202.798 174.885 204.702 176.301 206.711 176.301C208.807 176.301 210.823 176.825 212.84 176.043C214.675 175.332 216.628 175.383 218.511 174.924C220.131 174.529 221.743 174.199 223.35 173.729C223.986 173.543 224.643 173.638 225.272 173.471C225.771 173.338 226.246 173.041 226.726 172.849C228.082 172.307 229.511 171.934 230.828 171.3C232.526 170.483 234.099 169.833 235.495 168.517C236.207 167.846 237.118 167.378 237.78 166.671C238.562 165.838 239.49 164.961 240.458 164.338C241.159 163.888 242.01 163.139 242.17 162.263C242.411 160.935 241.709 159.2 241.299 157.941C240.965 156.913 240.644 155.488 239.855 154.699C239.61 154.453 239.359 154.072 239.253 153.752" stroke="#071FC0" stroke-width="1.8" stroke-linecap="round"/>
<path d="M218.253 141.186C217.808 140.445 216.699 140.665 216.054 140.88C214.524 141.39 213.061 141.669 211.655 142.525C210.342 143.324 210.494 144.976 210.507 146.312C210.53 148.669 211.062 151.689 213.118 153.149C214.695 154.27 216.53 155.219 218.521 154.861C220.945 154.426 221.314 152.58 221.782 150.52C222.176 148.785 221.857 146.716 221.189 145.088C220.753 144.026 220.155 143.221 219.315 142.43C218.893 142.033 217.908 141.873 217.737 141.359" stroke="#071FC0" stroke-width="1.8" stroke-linecap="round"/>
<path d="M217.392 148.416C218.913 149.85 221.416 150.433 223.36 151.065C224.032 151.283 224.595 151.686 225.31 151.686" stroke="#071FC0" stroke-width="1.8" stroke-linecap="round"/>
<path d="M191.401 149.268C190.524 146.02 190.5 143.554 190.525 140.067C190.537 138.332 191.707 134.893 192.644 133.307C193.295 132.205 194.84 132.134 195.455 130.935C196.126 129.629 196.767 128.454 197.598 127.244C198.599 125.785 199.39 124.106 199.797 122.367C200.071 121.196 200.408 121.78 200.964 122.558C201.592 123.438 202.324 124.26 202.934 125.14C203.061 125.323 203.266 125.937 203.278 125.714C203.336 124.6 203.37 123.497 203.632 122.405C204.309 119.582 204.279 116.825 205.783 114.238C206.586 112.858 207.611 111.954 208.537 110.719C209.325 109.668 210.335 108.676 210.335 107.296C210.335 105.557 210.88 110.731 211.196 112.441C211.256 112.769 211.654 116.68 212.783 115.979C214.243 115.073 215.204 113.355 216.015 111.886C218.196 107.938 218.395 103.298 220.921 99.4544C221.469 98.6203 221.603 98.702 221.696 99.6552C221.844 101.172 222.196 102.681 222.48 104.178C223.101 107.452 225.6 109.926 226.085 113.215C226.241 114.275 226.425 115.334 226.601 116.39C226.751 117.287 226.879 117.063 227.424 116.438C228.584 115.108 229.707 113.789 230.79 112.393C231.354 111.666 232.126 110.996 232.186 110.031C232.213 109.599 232.368 109.155 232.368 108.74C232.368 108.425 232.606 109.788 232.636 109.954C233.255 113.406 234.163 116.786 234.692 120.253C235.034 122.499 234.784 124.446 234.51 126.68C234.453 127.142 233.939 128.758 234.376 129.195C235.182 130.001 237.261 128.019 237.685 127.569C238.348 126.865 238.787 126.246 239.119 125.35C239.358 124.708 239.418 123.876 239.731 123.285C239.79 123.175 240.055 124.869 240.075 125.102C240.208 126.611 240.114 128.16 240.114 129.673C240.114 130.862 240.092 131.835 239.769 132.982C239.427 134.2 238.751 135.588 238.737 136.864C238.726 137.791 238.842 138.71 239.884 138.949C241.262 139.264 243.046 139.389 244.465 139.283C244.731 139.264 245.105 138.923 245.096 138.977C244.969 139.737 244.512 140.38 244.436 141.177C244.131 144.379 244.417 147.588 244.417 150.797C244.417 152.674 244.227 153.687 243.541 155.402C243.063 156.596 242.226 157.593 241.788 158.907" stroke="#071FC0" stroke-width="1.8" stroke-linecap="round"/>
<path d="M208.927 133.933C208.05 128.675 211.999 125.007 213.536 121.932C213.536 121.932 213.73 121.836 213.938 122.133C214.421 122.824 214.653 123.614 215.219 124.256C215.641 124.735 216.01 125.129 216.606 124.744C217.401 124.229 218.29 123.015 218.729 122.181C218.79 122.065 219.458 120.622 219.561 120.804C219.878 121.369 219.82 122.378 220.058 123.022C220.641 124.606 220.879 126.168 222.071 127.36C222.853 128.142 223.456 127.319 223.824 126.484C223.931 126.241 225.777 123.565 226.015 123.417C226.577 123.066 226.453 125.608 226.891 126.922C227.329 129.113 228.792 129.301 229.082 131.304C229.25 132.465 228.66 134.223 228.205 135.247" stroke="#071FC0" stroke-width="1.8" stroke-linecap="round"/>
<path d="M195.715 146.424C195.018 148.518 194.592 150.686 193.774 152.732C193.459 153.519 193.34 154.168 193.203 154.991" stroke="#071FC0" stroke-width="1.8" stroke-linecap="round"/>
<path d="M198.457 150.879C197.728 152.861 197.156 154.849 196.464 156.825C196.314 157.255 196.083 157.852 196.058 158.303C196.035 158.713 195.78 159.062 195.658 159.452C195.548 159.803 195.578 160.052 195.373 160.359" stroke="#071FC0" stroke-width="1.8" stroke-linecap="round"/>
<path d="M200.056 154.991C199.337 156.821 198.486 158.621 198 160.53C197.788 161.364 197.627 162.214 197.372 163.037C197.192 163.615 197.09 164.225 196.972 164.813" stroke="#071FC0" stroke-width="1.8" stroke-linecap="round"/>
<path d="M201.997 157.617C201.533 159.549 200.931 161.398 200.398 163.303C200.113 164.325 199.816 165.4 199.713 166.457C199.638 167.227 199.256 168.065 199.256 168.811" stroke="#071FC0" stroke-width="1.8" stroke-linecap="round"/>
<path d="M204.739 161.615C204.154 163.041 203.671 164.338 203.393 165.841C203.25 166.615 203.226 167.392 203.165 168.176C203.113 168.834 202.932 169.49 202.771 170.131C202.603 170.805 202.373 171.903 201.997 172.466" stroke="#071FC0" stroke-width="1.8" stroke-linecap="round"/>
<path d="M207.251 164.242C206.833 166.509 205.963 168.658 205.589 170.937C205.451 171.774 205.24 172.597 205.081 173.43C204.963 174.049 204.774 174.608 204.624 175.207" stroke="#071FC0" stroke-width="1.8" stroke-linecap="round"/>
<path d="M210.792 165.156C210.093 168.523 209.504 171.92 208.876 175.296C208.803 175.688 208.622 176.862 208.622 176.464" stroke="#071FC0" stroke-width="1.8" stroke-linecap="round"/>
<path d="M214.104 165.27C213.771 168.066 213.724 171.1 212.905 173.83C212.793 174.202 212.773 174.554 212.677 174.921C212.604 175.198 212.536 175.588 212.734 175.093" stroke="#071FC0" stroke-width="1.8" stroke-linecap="round"/>
<path d="M217.645 164.128C217.645 166.293 217.86 168.515 217.734 170.677C217.664 171.869 217.397 173.026 217.309 174.211C217.281 174.582 217.188 175.694 217.188 175.321" stroke="#071FC0" stroke-width="1.8" stroke-linecap="round"/>
<path d="M220.957 163.785C220.804 166.99 220.729 170.175 220.729 173.38" stroke="#071FC0" stroke-width="1.8" stroke-linecap="round"/>
<path d="M223.813 162.643C224.114 164.574 224.377 166.521 224.733 168.443C224.889 169.284 225.266 170.05 225.387 170.905C225.46 171.423 225.352 172.377 225.64 172.809" stroke="#071FC0" stroke-width="1.8" stroke-linecap="round"/>
<path d="M226.783 161.958C227.388 164.381 227.843 166.917 228.636 169.293C228.859 169.962 229.295 170.611 229.295 171.324" stroke="#071FC0" stroke-width="1.8" stroke-linecap="round"/>
<path d="M229.409 161.844C230.077 163.326 230.578 164.921 231.326 166.362C231.603 166.896 232.019 167.69 232.493 168.062C232.765 168.276 233.068 168.823 233.179 169.154" stroke="#071FC0" stroke-width="1.8" stroke-linecap="round"/>
<path d="M233.407 159.103C233.359 159.566 233.224 160.021 233.198 160.486C233.178 160.826 233.382 161.142 233.464 161.463C233.715 162.439 234.154 163.438 234.6 164.344C234.987 165.129 235.305 165.938 235.577 166.755" stroke="#071FC0" stroke-width="1.8" stroke-linecap="round"/>
<path d="M236.491 157.846C236.903 159.383 237.192 160.965 237.976 162.364C238.175 162.719 238.378 163.268 238.433 163.671C238.491 164.099 238.754 164.522 238.89 164.928" stroke="#071FC0" stroke-width="1.8" stroke-linecap="round"/>
<path d="M238.205 155.79C238.565 157.459 238.832 159.122 239.569 160.67C239.819 161.196 240.253 161.675 240.464 162.212C240.632 162.641 240.825 163.052 241.06 163.443" stroke="#071FC0" stroke-width="1.8" stroke-linecap="round"/>
<path d="M246.771 157.846C246.771 160.377 246.746 163.185 245.806 165.6C245.548 166.264 245.164 166.893 244.943 167.555" stroke="#071FC0" stroke-width="1.8" stroke-linecap="round"/>
<path d="M251.111 153.277C251.449 155.068 251.702 156.785 251.561 158.62C251.451 160.053 251.233 161.768 250.768 163.138C250.096 165.118 249.937 167.237 249.175 169.204C249.017 169.613 248.929 170.058 248.763 170.46C248.639 170.761 248.37 170.968 248.37 171.323" stroke="#071FC0" stroke-width="1.8" stroke-linecap="round"/>
<path d="M184.865 148.708C185.244 150.413 185.862 151.845 186.451 153.455C186.674 154.064 186.901 154.789 187.263 155.333" stroke="#071FC0" stroke-width="1.8" stroke-linecap="round"/>
</svg>
