<svg width="300" height="200" viewBox="0 0 300 200" fill="none" xmlns="http://www.w3.org/2000/svg">
<path d="M46.1513 65.5531C42.4666 79.6779 44.4062 95.2991 45.4656 109.553C46.0281 117.121 45.7399 124.776 45.7399 132.364C45.7399 137.053 45.7109 141.929 46.357 146.581C46.8315 149.997 46.0925 153.578 46.7684 156.958C47.5484 160.858 46.5627 164.777 46.5627 168.638C46.5627 171.997 47.3856 174.996 47.3856 178.283C47.3856 180.671 48.8969 180.74 51.1341 181.369C57.0623 183.036 63.6649 183.908 69.8082 184.454C78.53 185.23 87.3779 184.866 96.1392 184.866C105.585 184.866 115.281 183.486 124.733 184.249C130.127 184.684 135.538 184.261 140.939 184.477C146.795 184.712 158.167 184.355 164 184.477M249.206 58.1667C250.611 68.47 248.681 72.9467 251.452 83.8843C255.108 98.3182 254.457 113.431 255.474 128.181C256.126 137.633 253.616 146.786 253.509 156.249C253.457 160.79 253.339 165.213 253.074 169.712C252.858 173.392 252.081 176.983 251.429 180.569C251.161 182.042 247.422 181.918 246.286 182.009C241.046 182.428 229.284 182.659 224 183" stroke="#071FC0" stroke-width="1.8" stroke-linecap="round"/>
<path d="M46.5625 65.1416C50.9262 61.9613 54.896 59.4421 59.8195 57.1417C61.1156 56.5362 62.4287 55.9449 63.7469 55.3533M248.983 58.1474C247.5 55.1827 244.244 53.3931 241.074 52.2961C237.512 51.063 233.478 49.8254 230.004 48.0264M116.825 20.2319C117.478 19.7758 118.133 19.3246 118.79 18.8794C122.07 16.6577 125.203 14.4783 128.024 11.6566C130.334 9.34702 133.433 7.70141 136.047 5.6681C137.342 4.66097 138.6 3.10505 140.367 3.01671C144.084 2.83084 147.2 4.22667 150.607 5.6681C154.807 7.44491 159.414 8.85355 163.43 11.0623C168.081 13.6205 173.092 15.5492 178.019 17.6343" stroke="#071FC0" stroke-width="1.8" stroke-linecap="round"/>
<path d="M47.7383 179.656C52.1297 175.434 58.2614 173.362 63.0213 169.5C67.753 165.661 73.5893 163.365 78.7879 160.262C85.4348 156.296 91.1941 150.981 97.8433 146.962C101.488 144.759 105.4 143.004 109.064 140.82C112.532 138.752 115.32 136.026 118.543 133.662C122.452 130.796 126.449 128.611 130.25 125.606C132.559 123.78 135.391 121.899 138.211 120.923C140.321 120.193 142.161 118.623 144.273 117.944C146.035 117.378 149.451 116.24 151.325 115.303" stroke="#071FC0" stroke-width="1.8" stroke-linecap="round"/>
<path d="M151.334 115.235C156.078 118.987 161.195 122.35 166.5 125.394M252 178.5C248.365 176.077 247.982 175.498 244.313 172.958C242.566 171.748 240.003 170.459 238.171 169.645C237.632 169.405 234.034 167.778 233.5 167.5" stroke="#071FC0" stroke-width="1.8" stroke-linecap="round"/>
<path d="M189.966 116.809C192.228 114.923 194.027 112.598 196.366 110.756C200.48 107.514 203.935 103.811 207.334 99.8451C211.277 95.2451 217.284 91.9594 220.539 86.7752C222.188 84.1498 224.674 82.0093 226.554 79.5463C228.155 77.4482 229.657 75.1093 231.489 73.2041C234 70.5923 236.186 67.6197 238.718 65.0884C240.674 63.1321 243.008 60.9629 244.809 58.8619C245.529 58.0221 246.631 56.7267 247.604 56.2402" stroke="#071FC0" stroke-width="1.8" stroke-linecap="round"/>
<path d="M46.6982 65.6089C48.989 67.8996 51.629 69.6799 53.985 71.8547C58.4953 76.018 63.1763 80.098 68.2115 83.6523C70.6614 85.3816 72.6007 87.7436 74.9199 89.6474C76.6688 91.0831 78.4234 92.4649 80.1633 93.8884C82.9504 96.1688 85.5812 98.6972 88.5103 100.809C90.6734 102.368 92.72 104.205 94.8525 105.705C97.2181 107.37 99.37 109.283 101.715 110.91C104.927 113.139 107.817 116.691 111.373 118.332C113.082 119.121 114.603 120.939 116.057 122.129C117.514 123.321 119.225 124.221 120.607 125.464C121.841 126.575 124.154 128.178 125.567 128.884" stroke="#071FC0" stroke-width="1.8" stroke-linecap="round"/>
<path d="M209.484 127.543C210.159 126.648 209.825 124.736 209.478 123.764C209.296 123.256 208.623 122.429 208.078 122.228C207.054 121.85 205.676 123.507 205.285 124.229C204.093 126.432 205.855 129.746 206.809 131.866" stroke="#071FC0" stroke-width="1.8" stroke-linecap="round"/>
<path d="M209.584 127.807C210.379 127.499 210.953 126.839 211.738 126.536C212.228 126.347 212.779 126.514 213.265 126.631C214.708 126.976 215.17 128.008 214.328 129.225C213.389 130.581 211.724 130.663 210.297 131.287C209.858 131.478 208.71 131.889 208.255 131.811C207.988 131.765 207.538 131.832 207.351 132.03" stroke="#071FC0" stroke-width="1.8" stroke-linecap="round"/>
<path d="M218.835 131.449C220.473 132.413 222.129 134.441 223.496 135.837C224.319 136.677 225.985 138.114 226.23 139.24C226.378 139.92 227.46 140.958 227.931 141.52C228.324 141.99 228.412 142.737 228.638 143.315C229.681 145.985 231.262 148.142 231.626 151.102C231.963 153.843 230.88 158.038 230.028 160.488C228.85 163.877 227.493 165.999 226.315 169.155C225.137 172.312 222.691 174.473 220.998 177.272C219.633 179.528 217.034 181.931 215.1 183.751C211.714 186.937 206.583 189.559 202.013 190.824C200.203 191.325 198.096 192.453 196.145 192.451C195.353 192.449 194.827 192.902 193.973 192.733C192.82 192.504 191.481 192.597 190.304 192.532C187.732 192.391 185.2 191.218 182.908 190.087C180.931 189.112 178.767 187.964 176.89 186.859C174.898 185.686 172.956 184.319 171.162 182.872C170.143 182.05 169.518 180.721 168.589 179.813C165.606 176.895 164.672 173.571 163.093 169.846C161.083 165.106 160.813 160.286 160.318 155.235C159.441 146.29 167.513 132.441 173.457 127.613C178.17 124.743 182.898 123.006 188.515 122.596C191.36 122.389 194.253 123.16 197.112 123.441C199.262 123.652 201.333 124.277 203.326 125.118" stroke="#071FC0" stroke-width="1.8" stroke-linecap="round" stroke-dasharray="3.6 3.6"/>
<path d="M189.451 134.394C189.056 135.667 188.515 136.986 188.306 138.311C188.217 138.88 188.183 139.457 188.088 140.024C187.926 140.982 187.566 142.014 187.494 142.971C187.427 143.85 187.095 144.702 186.955 145.567C186.8 146.519 186.509 147.467 186.481 148.381" stroke="#071FC0" stroke-width="1.8" stroke-linecap="round"/>
<path d="M182.439 133.532C184.107 133.262 185.678 133.911 187.322 134.085C188.867 134.249 190.364 134.941 191.876 135.263C193.159 135.537 194.827 135.769 195.98 136.389" stroke="#071FC0" stroke-width="1.8" stroke-linecap="round"/>
<path d="M192.277 144.913C194.068 145.382 197.427 146.918 198.064 144.009C198.291 142.977 197.858 142.064 197.138 141.35C196.363 140.579 195.414 140.993 194.527 141.231C193.406 141.533 192.534 142.082 191.982 143.107C191.635 143.751 191.802 144.801 191.938 145.49C192.145 146.542 192.747 147.893 193.535 148.681C194.243 149.389 195.539 149.551 196.418 149.93C196.709 150.056 197.483 150.462 197.755 150.271" stroke="#071FC0" stroke-width="1.8" stroke-linecap="round"/>
<path d="M206.997 145.11C206.563 143.716 205.615 142.441 204.075 142.902C203.512 143.071 202.81 143.519 202.392 143.897C201.825 144.408 201.67 145.166 201.684 145.917C201.704 146.976 201.627 148.074 201.934 149.1C202.224 150.067 203.127 151.803 204.318 151.144C206.217 150.093 206.81 147.627 207.156 145.639C207.503 143.646 207.927 141.701 207.988 139.688C208 139.291 208.213 138.146 208.024 138.496C207.795 138.923 207.822 139.58 207.703 140.048C207.538 140.695 207.493 141.644 207.493 142.307C207.493 143.59 207.416 145.24 207.138 146.509C207.005 147.117 207.272 147.997 207.043 148.556C206.754 149.26 206.994 150.101 206.841 150.799C206.704 151.426 206.736 152.086 206.717 152.689" stroke="#071FC0" stroke-width="1.8" stroke-linecap="round"/>
<path d="M188.603 157.716C188.449 158.604 188.277 159.487 188.196 160.384C188.151 160.89 187.906 161.458 187.943 161.961C187.976 162.421 188.3 161.109 188.524 160.706C188.969 159.907 189.368 158.956 190.333 158.737C191.367 158.501 191.495 161.456 191.45 162.115" stroke="#071FC0" stroke-width="1.8" stroke-linecap="round"/>
<path d="M194.626 159.584C193.65 159.712 192.758 161.15 193.262 162.118C193.763 163.083 194.902 163.36 195.794 162.705C196.164 162.433 196.445 162.43 196.689 162.017C196.891 161.673 196.936 161.246 196.828 160.854C196.568 159.911 195.855 158.834 194.774 158.894" stroke="#071FC0" stroke-width="1.8" stroke-linecap="round"/>
<path d="M200.365 156.88C199.404 159.293 199.027 161.749 198.852 164.278" stroke="#071FC0" stroke-width="1.8" stroke-linecap="round"/>
<path d="M197.93 158.813C198.154 158.523 199.993 159.373 200.337 159.455C200.741 159.551 201.142 159.541 201.516 159.761" stroke="#071FC0" stroke-width="1.8" stroke-linecap="round"/>
<path d="M179.526 157.767C179.164 158.53 178.724 159.283 178.513 160.1C178.249 161.12 177.953 162.132 177.754 163.163C177.433 164.821 177.207 166.515 176.841 168.165C176.591 169.294 176.278 170.424 176 171.549C175.84 172.197 175.491 172.8 175.299 173.433C175.252 173.587 175.105 173.834 175.093 173.985C175.085 174.088 175.621 174.168 175.71 174.191C176.758 174.468 177.781 174.805 178.838 175.025C179.302 175.121 179.745 175.074 180.206 175.19C180.564 175.281 180.95 175.313 181.295 175.377C182.013 175.509 182.923 175.426 183.578 175.778" stroke="#071FC0" stroke-width="1.8" stroke-linecap="round"/>
<path d="M189.975 171C190.035 170.468 189.59 170.26 189.215 170.157C188.761 170.033 188.539 170.205 188.117 170.308C187.653 170.422 186.717 171.751 186.698 172.268C186.667 173.097 186.261 173.935 186.615 174.741C186.889 175.365 187.227 175.723 187.901 175.868C188.441 175.984 188.621 175.32 188.889 174.915C189.132 174.549 189.405 174.182 189.572 173.77C189.846 173.09 189.7 172.188 190.022 171.591C190.098 171.448 190.102 171.98 190.113 172.125C190.185 173.041 190.365 173.928 190.564 174.812C190.657 175.229 190.635 175.596 190.635 176.032C190.635 176.315 190.757 176.59 190.737 176.858" stroke="#071FC0" stroke-width="1.8" stroke-linecap="round"/>
<path d="M195.949 171.237C195.215 170.842 194.249 170.248 193.455 171.002C193.198 171.246 192.742 171.832 193.042 172.144C193.209 172.318 193.316 172.605 193.51 172.779C193.806 173.044 194.147 173.247 194.493 173.434C194.926 173.667 195.488 174.046 195.997 174.089C196.679 174.147 196.326 175.794 195.749 176.006C195.254 176.188 194.304 176.313 193.853 176.07C193.588 175.927 193.186 176.019 192.908 175.869" stroke="#071FC0" stroke-width="1.8" stroke-linecap="round"/>
<path d="M201.2 171.803C200.634 170.757 198.51 169.865 197.683 171.399C197.158 172.375 199.282 173.031 199.836 173.33C200.308 173.584 200.93 173.819 201.128 174.397C201.263 174.789 201.184 175.516 200.754 175.674C199.944 175.972 199.235 175.665 198.474 175.68" stroke="#071FC0" stroke-width="1.8" stroke-linecap="round"/>
<path d="M206.894 171.374C206.261 171.046 205.334 170.865 204.697 171.527C204.438 171.796 204.222 171.939 204.029 172.298C203.904 172.531 203.852 172.759 203.747 172.992C203.608 173.298 203.732 174.255 203.975 174.428C204.468 174.779 204.964 175.166 205.513 175.462C206.036 175.743 206.944 175.189 207.381 174.772C207.614 174.55 207.779 174.222 207.999 173.974C208.198 173.748 208.159 173.694 208.043 173.478C207.513 172.496 207 171.018 205.706 171.043" stroke="#071FC0" stroke-width="1.8" stroke-linecap="round"/>
<path d="M90.4607 43.2711C89.8351 42.5204 88.4272 42.213 87.594 42.7898C86.8725 43.2893 86.6807 43.9708 86.2339 44.673C85.7152 45.488 86.1379 48.026 86.7361 48.6906C87.756 49.8239 88.3192 49.2508 89.3517 48.4395C90.5381 47.5073 90.7529 45.5981 90.8269 44.1918C90.9023 42.7593 91.0257 41.3343 91.0257 39.9022C91.0257 38.689 90.8775 37.3812 90.6072 36.1985C90.4896 35.6841 90.3201 35.0409 90.5548 34.5245C90.9591 33.635 90.649 30.618 90.649 31.595C90.649 33.0728 90.4472 34.5436 90.4607 36.0101C90.4848 38.6417 91.4946 41.1206 92.2288 43.6059C92.7197 45.2671 93.2753 47.3046 94.2272 48.7325" stroke="#071FC0" stroke-width="1.8" stroke-linecap="round"/>
<path d="M96.8638 46.0957C97.9815 45.8321 100.065 45.9475 100.065 44.4426C100.065 43.6407 99.959 43.305 99.5108 42.6326C98.5389 41.1748 96.6188 43.2975 96.3407 44.3171C96.0139 45.5152 96.5604 48.659 98.0984 49.0984C98.7595 49.2873 99.4798 49.2972 100.17 49.2972C100.921 49.2972 101.895 49.7097 102.514 49.2972" stroke="#071FC0" stroke-width="1.8" stroke-linecap="round"/>
<path d="M108.163 44.4008C107.621 42.8649 107.261 42.5316 105.903 42.0467C105.23 41.8062 104.186 43.6936 103.926 44.2124C103.48 45.1045 102.609 46.3186 103.372 47.2989C103.865 47.9336 104.318 48.0628 105.066 47.7906C106.155 47.3946 106.7 45.8695 106.992 44.8611C107.069 44.5937 107.878 42.4129 108.017 42.4129C108.416 42.4129 109.381 45.2367 109.482 45.5725C109.738 46.4272 110.235 47.4683 110.235 48.3556" stroke="#071FC0" stroke-width="1.8" stroke-linecap="round"/>
<path d="M112.306 42.5177C112.587 44.2522 112.949 45.9811 113.625 47.6025C113.714 47.8175 114.363 49.1092 114.231 48.7324C113.873 47.7071 113.626 44.8208 114.148 43.836C114.477 43.2132 116.116 42.016 116.826 42.3712C117.842 42.8791 118.063 44.4545 119.086 44.9659" stroke="#071FC0" stroke-width="1.8" stroke-linecap="round"/>
<path d="M141.65 43.0381C140.84 39.4498 134.972 44.0565 137.156 46.5361C138.081 47.5866 138.592 46.6825 139.362 45.8959C140.357 44.8792 140.605 43.7103 141.123 42.333C141.567 41.1526 141.94 43.923 142.013 44.3557C142.178 45.3302 142.223 47.1854 143.529 46.8887C144.709 46.6208 145.58 46.0511 145.726 44.7082C145.859 43.488 145.726 41.9824 145.209 40.867C144.092 38.4581 141.078 36.5247 138.472 36.5247C136.737 36.5247 135.22 37.382 134.078 38.7608C133.092 39.952 132.788 41.5401 132.825 43.0381C132.869 44.7747 134.224 47.1973 135.367 48.4753C136.331 49.5523 137.144 50.3779 138.563 50.9712C140.38 51.731 141.737 50.8877 143.538 50.8877C144.115 50.8877 144.61 50.3937 145.163 50.2196C145.751 50.0348 146.219 49.89 146.716 49.5516" stroke="#071FC0" stroke-width="1.8" stroke-linecap="round"/>
<path d="M150.148 40.6998C151.014 42.8151 152.315 44.6507 153.416 46.6195C153.504 46.7773 154.361 47.897 154.397 47.5473C154.499 46.5482 154.851 45.4303 155.286 44.5411C155.915 43.2564 156.321 41.9566 156.693 40.6256C156.747 40.4352 156.957 39.571 157.011 40.2359C157.083 41.1145 157.761 42.3631 158.228 43.1122C158.693 43.8598 158.855 44.9313 159.426 45.5803C159.895 46.1128 160.389 48.0776 161.133 48.0484C162.297 48.0026 163.516 44.4369 163.748 43.6318C163.982 42.8164 164.365 42.1807 164.365 41.2937C164.365 40.8065 164.488 39.9469 164.692 39.5308" stroke="#071FC0" stroke-width="1.8" stroke-linecap="round"/>
<path d="M171.392 39.531C170.341 39.4415 169.725 39.3186 168.705 39.698C167.968 39.9719 167.689 41.0676 167.306 41.665C166.834 42.4032 166.96 42.9744 167.306 43.7712C167.484 44.1807 168.31 45.3142 168.705 45.5341C169.584 46.0241 170.305 46.2114 171.356 46.2114C172.182 46.2114 172.51 45.686 173.008 44.9867C173.627 44.1167 173.556 43.0569 173.516 41.999C173.477 40.9528 172.479 40.3592 172.209 39.531" stroke="#071FC0" stroke-width="1.8" stroke-linecap="round"/>
<path d="M176.948 38.3618C176.948 40.4764 177.041 42.5683 177.112 44.6712C177.164 46.2314 177.438 47.7572 177.438 49.3382C177.438 50.5759 177.109 51.7055 176.049 52.3073C175.601 52.562 171.928 53.4874 171.555 52.7248" stroke="#071FC0" stroke-width="1.8" stroke-linecap="round"/>
<path d="M177.438 33.6855C177.525 33.9615 177.525 34.2307 177.765 34.3536" stroke="#071FC0" stroke-width="1.8" stroke-linecap="round"/>
<path d="M181.197 45.2092H181.034" stroke="#071FC0" stroke-width="1.8" stroke-linecap="round"/>
<path d="M184.975 42.5233C185.891 42.4218 187.224 42.4878 187.599 41.4006C187.816 40.7725 188.08 40.2606 188.08 39.5913C188.08 38.7595 188.001 38.4083 187.263 38.0511C186.602 37.731 186.015 38.6447 185.665 39.0532C184.905 39.9414 184.812 41.0904 184.812 42.1893C184.812 43.6511 186.45 45.0285 187.79 45.0285C188.473 45.0285 189.548 45.219 190.078 44.7316C190.365 44.4676 190.825 44.1491 191.185 44.0264" stroke="#071FC0" stroke-width="1.8" stroke-linecap="round"/>
<path d="M193.146 32.3357C192.604 34.9482 193.222 37.7522 193.673 40.3337C193.797 41.0464 194.127 41.9011 194.127 42.6162C194.127 43.3638 194.454 43.998 194.454 44.6946" stroke="#071FC0" stroke-width="1.8" stroke-linecap="round"/>
<path d="M189.551 38.3482C190.766 37.7275 192.657 38.2613 194.036 38.0049C194.443 37.9293 194.757 37.6802 195.189 37.6802C195.951 37.6802 196.624 37.5132 197.395 37.5132" stroke="#071FC0" stroke-width="1.8" stroke-linecap="round"/>
<path d="M197.069 31C197.614 35.6198 199.03 40.2372 199.03 44.862" stroke="#071FC0" stroke-width="1.8" stroke-linecap="round"/>
<path d="M199.03 40.8536C199.05 39.5199 199.43 37.8201 200.664 37.0494C201.204 36.7119 202.907 36.6083 203.278 37.2721C204.416 39.3075 204.913 42.0498 204.913 44.3608" stroke="#071FC0" stroke-width="1.8" stroke-linecap="round"/>
<path d="M91.9653 67.0103C92.4117 68.8516 92.7582 69.8238 94.505 70.9467C95.2244 71.4092 96.4225 71.7273 97.2704 71.8215C98.1485 71.9191 98.0271 71.5382 98.3145 70.8197" stroke="#071FC0" stroke-width="1.8" stroke-linecap="round"/>
<path d="M99.0765 67.7718C98.1525 65.2171 98.0803 67.9687 98.0606 69.2109C98.0378 70.6484 98.2995 72.0265 98.5121 73.4437C98.9028 76.048 99.481 78.993 98.879 81.627C98.5149 83.2198 95.2253 83.5685 93.9407 83.2073C92.0055 82.663 91.4268 81.4322 90.4417 79.7082" stroke="#071FC0" stroke-width="1.8" stroke-linecap="round"/>
<path d="M103.902 66.2483C102.567 67.7457 101.495 70.445 103.196 72.1459C104.322 73.2721 106.383 72.1407 107.26 71.1583C107.866 70.4792 108.536 68.249 107.457 67.5746C106.7 67.1011 106.252 65.9296 105.426 66.7562" stroke="#071FC0" stroke-width="1.8" stroke-linecap="round"/>
<path d="M110.759 65.994C110.759 67.1826 110.252 68.9981 110.731 70.0857C110.844 70.3447 112.016 72.9297 112.79 71.9622C114.109 70.3145 114.496 68.8105 114.836 66.77C114.923 66.2484 115.756 64.3756 116.036 65.599C116.424 67.2966 116.049 69.1674 116.6 70.8194" stroke="#071FC0" stroke-width="1.8" stroke-linecap="round"/>
<path d="M129.781 61.4451C129.781 65.3742 130.711 68.7834 131.305 72.6478C131.449 73.5849 131.662 74.8566 132.067 75.6672" stroke="#071FC0" stroke-width="1.8" stroke-linecap="round"/>
<path d="M136.131 66.7783C134.521 67.9437 133.324 69.3996 131.729 70.5596C131.155 70.9765 130.404 71.531 131.475 71.8576C133.298 72.414 135.255 72.6247 137.132 72.8594C137.848 72.9488 138.206 73.3814 138.924 73.3814" stroke="#071FC0" stroke-width="1.8" stroke-linecap="round"/>
<path d="M140.702 66.5244C141.232 68.5505 142.045 70.472 142.494 72.4926C142.679 73.3252 143.093 73.8834 142.734 72.5349C142.356 71.1202 143.146 70.0403 143.749 68.6831C144.3 67.4441 146.304 68.1649 146.854 69.0641C147.236 69.6892 148.272 71.8333 148.829 72.1117" stroke="#071FC0" stroke-width="1.8" stroke-linecap="round"/>
<path d="M156.448 66.5245C154.784 65.9485 152.684 66.0308 152.398 68.3163C152.286 69.2137 152.322 70.4257 152.765 71.2228C153.01 71.6639 153.164 72.2624 153.541 72.6056C153.946 72.9737 154.564 73.0906 154.91 73.4944C154.991 73.5896 156.844 72.7458 157.21 72.5632C158.399 71.9688 157.606 71.1337 158.028 70.08C158.474 68.9654 157.295 67.3995 156.194 67.0324" stroke="#071FC0" stroke-width="1.8" stroke-linecap="round"/>
<path d="M161.781 65.7627C161.811 67.7518 161.937 71.4746 163.686 72.8737C164.111 73.2141 163.777 73.5653 164.123 72.8737C164.434 72.2526 165.084 71.7349 165.435 71.1101C166.094 69.9393 167.038 68.1492 167.114 66.7786C167.218 64.9075 167.437 66.9978 167.679 67.5405C168.137 68.5717 168.196 70.0991 168.398 71.2089C168.669 72.6964 170.18 71.679 170.938 71.2371C173.078 69.9884 173.495 67.7314 174.479 65.7627" stroke="#071FC0" stroke-width="1.8" stroke-linecap="round"/>
<path d="M185.044 56.7615C185.044 59.1686 185.395 61.7565 185.693 64.1406C185.952 66.2057 186.001 68.8062 186.582 70.8425C186.818 71.6687 186.735 72.1329 186.836 70.8707C186.939 69.5863 187.768 67.8851 188.6 66.9342C191.109 64.0662 192.029 69.7155 192.663 70.9836" stroke="#071FC0" stroke-width="1.8" stroke-linecap="round"/>
<path d="M197.489 65.6503C193.327 65.6503 195.347 71.4037 198.505 71.2375C200.484 71.1333 200.859 68.2978 200.79 66.9201C200.686 64.8331 197.421 64.9277 196.219 64.1265" stroke="#071FC0" stroke-width="1.8" stroke-linecap="round"/>
<path d="M202.822 64.3804C203.355 65.927 203.764 67.5491 204.458 69.0364C204.72 69.5974 204.908 70.3272 205.418 69.4597C205.776 68.8512 206.24 68.5327 206.49 67.823C206.734 67.1316 207.013 66.4012 207.407 65.7772C208.01 64.8224 207.975 63.3512 208.169 65.0012C208.387 66.8518 209.155 68.7632 209.876 70.4755C210.367 71.6412 210.191 72.023 211.09 70.7154C212.32 68.926 213.77 67.0928 215.266 65.5091C215.779 64.9664 215.71 64.0012 216.028 63.3645" stroke="#071FC0" stroke-width="1.8" stroke-linecap="round"/>
<path d="M106 93.6655C106.349 96.021 106.57 98.5424 107.15 100.863C107.299 101.458 107.41 99.6614 107.491 99.0528C107.706 97.4248 108.426 96.2461 109.066 94.7515C109.256 94.3099 109.581 93.9053 110.024 93.7081C112.869 92.4437 113.744 96.8073 113.857 98.8398C113.89 99.4369 114.049 100.061 114.049 98.9463C114.049 98.0276 114.199 97.1813 114.241 96.3059C114.298 95.1105 115.063 94.4286 115.625 93.4739C116.674 91.6892 118.133 95.4667 118.265 95.9226C118.464 96.6065 118.648 97.0847 118.648 97.7965C118.648 98.2081 118.659 99.0368 119.032 99.2231" stroke="#071FC0" stroke-width="1.8" stroke-linecap="round"/>
<path d="M122.29 93.0906C122.29 94.8165 121.998 98.2649 124.589 98.2649C125.821 98.2649 126.699 97.723 127.123 96.4975C127.519 95.3537 127.394 94.3459 127.464 93.0906C127.531 91.8743 127.928 93.8778 127.996 94.1978C128.243 95.3575 128.805 96.6887 128.805 97.8816" stroke="#071FC0" stroke-width="1.8" stroke-linecap="round"/>
<path d="M134.746 91.9409C134.2 90.8474 132.83 92.5889 132.83 93.2079C132.83 94.5243 132.99 95.9359 133.639 97.1152C134.945 99.4906 138.529 96.3486 140.112 96.3486" stroke="#071FC0" stroke-width="1.8" stroke-linecap="round"/>
<path d="M142.412 85.9998C141.863 87.6465 142.221 89.8496 142.221 91.6C142.221 92.6962 142.583 93.9286 142.316 94.9963C142.193 95.4908 142.481 96.8853 142.178 97.264C142.074 97.3934 141.992 97.999 141.88 97.6473C141.725 97.1643 141.837 96.4704 141.837 95.9651C141.837 94.7425 142.191 93.7981 143.179 93.016C143.848 92.4858 146.702 91.381 147.107 92.5156C147.846 94.5845 148.353 96.8381 148.353 99.0314" stroke="#071FC0" stroke-width="1.8" stroke-linecap="round"/>
<path d="M161.768 90.9828C162.391 92.0469 162.984 93.1285 163.578 94.2088C163.855 94.7123 164.368 95.0596 164.6 95.5822C164.834 96.1082 165.155 97.1382 165.558 97.5412C165.671 97.6545 165.601 97.3743 165.601 97.2644C165.601 96.5349 165.699 96.0137 166.09 95.3799C166.687 94.4137 167.39 93.3256 167.56 92.1965C167.68 91.396 167.9 90.5264 167.9 89.7265C167.9 88.5038 167.979 89.9361 168.188 90.3121C168.967 91.7147 169.332 93.5734 169.913 95.0818C170.146 95.6882 170.574 96.5515 171.243 96.7427C171.625 96.8516 171.94 95.8411 172.308 95.5396C173.331 94.7027 173.721 93.1828 174.31 92.0581C174.748 91.2215 175.374 89.8034 175.374 88.8748" stroke="#071FC0" stroke-width="1.8" stroke-linecap="round"/>
<path d="M178.249 92.8992C179.965 93.0664 183.408 93.9469 184.041 91.5577C184.335 90.4457 184.023 89.175 182.997 88.4915C180.974 87.1423 179.451 89.6985 178.717 91.0999C177.739 92.9681 177.949 94.8719 179.207 96.4446C179.507 96.8197 181.909 96.0457 182.454 95.9549C183.345 95.8065 184.204 95.3906 185.148 95.3906" stroke="#071FC0" stroke-width="1.8" stroke-linecap="round"/>
<path d="M190.706 95.3904C190.733 95.6079 190.925 95.6914 191.089 95.7737" stroke="#071FC0" stroke-width="1.8" stroke-linecap="round"/>
<path d="M194.539 95.3904C194.753 95.7721 194.903 95.7737 195.305 95.7737" stroke="#071FC0" stroke-width="1.8" stroke-linecap="round"/>
<path d="M199.521 95.3904C199.554 95.6554 199.885 95.7033 200.096 95.7737" stroke="#071FC0" stroke-width="1.8" stroke-linecap="round"/>
<path d="M62.342 21.1685C62.5171 38.7545 63.9205 55.0507 65.1098 72.5797C65.3205 75.6847 65.8648 78.8831 66.2428 82.0513" stroke="#071FC0" stroke-width="1.8" stroke-linecap="round"/>
<path d="M62.3801 20.9031C77.0426 20.9473 91.8577 20.689 106.479 21.1931C110.451 21.3301 114.311 20.3133 118.275 20.3695C122.75 20.4329 127.177 20.7461 131.656 20.5118C135.354 20.3183 139.003 20.0627 142.686 19.7757C147.127 19.4295 151.56 19.8702 156.016 19.415C161.934 18.8107 167.928 17.5701 173.882 17.7754C179.297 17.962 184.705 17.7384 190.137 17.9257C194.828 18.0874 199.73 18.4794 204.38 17.8015C213.055 16.537 221.913 17.3807 230.661 17.6823" stroke="#071FC0" stroke-width="1.8" stroke-linecap="round"/>
<path d="M230.671 17.9226C230.2 31.5822 230.141 45.2 229.67 58.8467C229.546 62.4599 229.421 66.073 229.296 69.6861C229.222 71.8522 228.93 74.1763 228.88 76.4316" stroke="#071FC0" stroke-width="1.8" stroke-linecap="round"/>
</svg>
