<svg width="107" height="61" viewBox="0 0 107 61" fill="none" xmlns="http://www.w3.org/2000/svg">
<path d="M105.303 39.534C105.111 46.2136 104.428 48.1804 102.983 53.4998C100.568 62.395 85.0046 58.9998 73.4434 58.9998C60.4629 58.9998 47.5133 57.9998 34.5557 57.9998C28.8783 57.9998 7.60671 60.3294 4.40737 54.9739C0.353513 48.1878 1.99994 38.9542 1.99994 31.5001C1.99994 23.8637 1.08256 13.5002 4.40743 6.99996C8.49964 -0.999817 25 1.99987 34.0301 1.99984C49.9106 1.99984 56.6411 2.99977 72.4996 2.99977C79.4024 2.99977 96.6589 1.52349 101.5 5.57842C105.516 10.5235 104.991 12.3832 105.303 18.4998C105.883 29.8591 105.607 28.9496 105.303 39.534Z" stroke="#071FC0" stroke-width="1.8" stroke-linecap="round"/>
</svg>
