<svg width="357" height="64" viewBox="0 0 357 64" fill="none" xmlns="http://www.w3.org/2000/svg">
<path d="M4.89665 6.57848C7.28517 1.88018 24.7264 3.25549 28.2765 3.38481C39.8931 3.38481 52.6766 2.05144 64.4683 1.44505C80.5478 0.618147 96.3343 1.44499 112.444 1.44499C131.125 1.44499 150.122 0.443789 168.772 1.44495C184.969 2.31443 201.155 2.71801 217.372 3.29018C237.103 3.98633 256.919 5.51392 276.661 5.51392C289.746 5.51392 302.976 5.30381 316.033 6.03437C322.067 6.37201 328.488 7.30752 334.515 6.55482C338.55 6.05084 343.243 6.55482 347.327 6.55482C350.448 6.55482 353.247 9.0773 354.323 15.1939C356.322 26.5533 356.371 29.9497 355.323 40.534C354.662 47.2137 355.459 51.9083 350.48 57.2277C348.871 58.9472 345.155 58.5772 342.931 59.1676C334.782 61.3301 325.858 60.0585 317.494 60.8709C312.912 61.316 308.352 62.254 303.775 62.5742C297.685 63.0001 291.633 63.0001 285.528 63H285.32C278.499 63 271.639 62.4624 264.835 62.0537C258.092 61.6487 251.324 62.0481 244.594 61.6279C228.27 60.6085 211.933 60.8709 195.562 60.8709C181.388 60.8709 167.237 61.804 153.077 61.7225C135.483 61.6213 117.921 59.5934 100.337 59.5934C87.186 59.5934 74.1753 57.9893 61.0192 57.8901C52.3307 57.8246 43.5245 58.2997 34.8521 57.8665C28.7195 57.5601 21.4553 58.3791 15.5042 56.9439C13.1534 56.3769 9.66288 56.9877 7.57559 55.9739C4.66664 54.5611 1.48708 51.0562 1.48708 47.9069C1.48708 41.9255 1 36.0028 1 29.9987C1 25.9118 1.82627 20.9995 2.84008 17.0111C3.72638 13.5244 3.18822 9.93901 4.89665 6.57848Z" stroke="#071FC0" stroke-width="1.8" stroke-linecap="round"/>
</svg>
